<svg class="main-svg" xmlns="http://www.w3.org/2000/svg" xmlns:xlink="http://www.w3.org/1999/xlink" width="500" height="500" style="" viewBox="0 0 500 500"><rect x="0" y="0" width="500" height="500" style="fill: rgb(255, 255, 255); fill-opacity: 1;"/><defs id="defs-b81c6a"><g class="clips"/><g class="gradients"/><g class="patterns"/></defs><g class="bglayer"/><g class="layer-below"><g class="imagelayer"/><g class="shapelayer"/></g><g class="cartesianlayer"/><g class="polarlayer"/><g class="smithlayer"/><g class="ternarylayer"/><g class="geolayer"/><g class="funnelarealayer"/><g class="pielayer"/><g class="iciclelayer"/><g class="treemaplayer"/><g class="sunburstlayer"><g class="trace sunburst" stroke-linejoin="round" style="opacity: 1;"><g class="slice cursor-pointer"><path class="surface" d="M250,240L306.6666666666667,240A56.666666666666664,56.666666666666664 0,0,0 273.3010445004597,188.3456445563522L250,240A0,0 0,0,1 250,240Z" style="pointer-events: all; stroke-width: 1; fill: rgb(218, 112, 214); fill-opacity: 1; stroke: rgb(255, 255, 255); stroke-opacity: 1;"/><g class="slicetext"><text data-notex="1" class="slicetext" text-anchor="middle" x="0" y="0" style="font-family: Helvetica; font-size: 16px; fill: rgb(68, 68, 68); fill-opacity: 1; white-space: pre;" transform="translate(279.9085610994854,217.21533880528108)scale(0.5933313923822512)rotate(-32.86004056795127)"><tspan class="line" dy="0em" x="0" y="0">Analyst</tspan><tspan class="line" dy="1.3em" x="0" y="0">18%</tspan></text></g></g><g class="slice cursor-pointer"><path class="surface" d="M250,240L273.3010445004597,188.3456445563522A56.666666666666664,56.666666666666664 0,1,0 279.0598638645573,288.6480772825043L250,240A0,0 0,1,1 250,240Z" style="pointer-events: all; stroke-width: 1; fill: rgb(143, 188, 143); fill-opacity: 1; stroke: rgb(255, 255, 255); stroke-opacity: 1;"/><g class="slicetext"><text data-notex="1" class="slicetext" text-anchor="middle" x="0" y="0" style="font-family: Helvetica; font-size: 16px; fill: rgb(68, 68, 68); fill-opacity: 1; white-space: pre;" transform="translate(222.7081002081547,236.41282550496706)scale(0.7311438461213664)"><tspan class="line" dy="0em" x="0" y="0">Balanced</tspan><tspan class="line" dy="1.3em" x="0" y="0">65%</tspan></text></g></g><g class="slice cursor-pointer"><path class="surface" d="M250,240L279.0598638645573,288.6480772825043A56.666666666666664,56.666666666666664 0,0,0 306.6666666666667,240L250,240A0,0 0,0,1 250,240Z" style="pointer-events: all; stroke-width: 1; fill: rgb(135, 206, 250); fill-opacity: 1; stroke: rgb(255, 255, 255); stroke-opacity: 1;"/><g class="slicetext"><text data-notex="1" class="slicetext" text-anchor="middle" x="0" y="0" style="font-family: Helvetica; font-size: 16px; fill: rgb(68, 68, 68); fill-opacity: 1; white-space: pre;" transform="translate(284.3633350613704,256.400234907615)scale(0.5495761808515621)rotate(29.57403651115618)"><tspan class="line" dy="0em" x="0" y="0">Imaging</tspan><tspan class="line" dy="1.3em" x="0" y="0">16%</tspan></text></g></g><g class="slice cursor-pointer"><path class="surface" d="M306.6666666666667,240L363.3333333333333,240A113.33333333333333,113.33333333333333 0,0,0 362.8826187839569,229.90253393566928L306.44130939197845,234.95126696783464A56.666666666666664,56.666666666666664 0,0,1 306.6666666666667,240Z" style="pointer-events: all; stroke-width: 1; fill: rgb(218, 112, 214); fill-opacity: 1; stroke: rgb(255, 255, 255); stroke-opacity: 1;"/><g class="slicetext"><text data-notex="1" class="slicetext" text-anchor="middle" x="0" y="0" style="font-family: Helvetica; font-size: 16px; fill: rgb(68, 68, 68); fill-opacity: 1; white-space: pre;" transform="translate(356.0190869022943,234.17947798290234)scale(0.22158043800138483)rotate(-2.5557809330629198)"><tspan class="line" dy="0em" x="0" y="0">Low skill</tspan><tspan class="line" dy="1.3em" x="0" y="0">8%</tspan></text></g></g><g class="slice cursor-pointer"><path class="surface" d="M306.44130939197845,234.95126696783464L362.8826187839569,229.90253393566928A113.33333333333333,113.33333333333333 0,0,0 344.40839691105947,177.29833305941298L297.2041984555297,208.6491665297065A56.666666666666664,56.666666666666664 0,0,1 306.44130939197845,234.95126696783464Z" style="pointer-events: all; stroke-width: 1; fill: rgb(218, 112, 214); fill-opacity: 1; stroke: rgb(255, 255, 255); stroke-opacity: 1;"/><g class="slicetext"><text data-notex="1" class="slicetext" text-anchor="middle" x="0" y="0" style="font-family: Helvetica; font-size: 16px; fill: rgb(68, 68, 68); fill-opacity: 1; white-space: pre;" transform="translate(328.9173933921034,209.15041188922385)scale(0.602759764096472)rotate(-19.35091277890467)"><tspan class="line" dy="0em" x="0" y="0">Medium skill</tspan><tspan class="line" dy="1.3em" x="0" y="0">43%</tspan></text></g></g><g class="slice cursor-pointer"><path class="surface" d="M297.2041984555297,208.6491665297065L344.40839691105947,177.29833305941298A113.33333333333333,113.33333333333333 0,0,0 296.6020890009194,136.6912891127044L273.3010445004597,188.3456445563522A56.666666666666664,56.666666666666664 0,0,1 297.2041984555297,208.6491665297065Z" style="pointer-events: all; stroke-width: 1; fill: rgb(218, 112, 214); fill-opacity: 1; stroke: rgb(255, 255, 255); stroke-opacity: 1;"/><g class="slicetext"><text data-notex="1" class="slicetext" text-anchor="middle" x="0" y="0" style="font-family: Helvetica; font-size: 16px; fill: rgb(68, 68, 68); fill-opacity: 1; white-space: pre;" transform="translate(301.62083074830656,173.02014453673615)scale(0.8190372143818567)rotate(-49.65517241379314)"><tspan class="line" dy="0em" x="0" y="0">High skill</tspan><tspan class="line" dy="1.3em" x="0" y="0">49%</tspan></text></g></g><g class="slice cursor-pointer"><path class="surface" d="M273.3010445004597,188.3456445563522L296.6020890009194,136.6912891127044A113.33333333333333,113.33333333333333 0,0,0 240.26225111855769,127.08578171387622L245.13112555927884,183.5428908569381A56.666666666666664,56.666666666666664 0,0,1 273.3010445004597,188.3456445563522Z" style="pointer-events: all; stroke-width: 1; fill: rgb(143, 188, 143); fill-opacity: 1; stroke: rgb(255, 255, 255); stroke-opacity: 1;"/><g class="slicetext"><text data-notex="1" class="slicetext" text-anchor="middle" x="0" y="0" style="font-family: Helvetica; font-size: 16px; fill: rgb(68, 68, 68); fill-opacity: 1; white-space: pre;" transform="translate(260.7094253700883,153.8647682223497)scale(0.7988607868096577)rotate(-80.32454361054761)"><tspan class="line" dy="0em" x="0" y="0">Low skill</tspan><tspan class="line" dy="1.3em" x="0" y="0">12%</tspan></text></g></g><g class="slice cursor-pointer"><path class="surface" d="M245.13112555927884,183.5428908569381L240.26225111855769,127.08578171387622A113.33333333333333,113.33333333333333 0,0,0 234.5211194586025,352.2713173594645L242.26055972930124,296.1356586797322A56.666666666666664,56.666666666666664 0,0,1 245.13112555927884,183.5428908569381Z" style="pointer-events: all; stroke-width: 1; fill: rgb(143, 188, 143); fill-opacity: 1; stroke: rgb(255, 255, 255); stroke-opacity: 1;"/><g class="slicetext"><text data-notex="1" class="slicetext" text-anchor="middle" x="0" y="0" style="font-family: Helvetica; font-size: 16px; fill: rgb(68, 68, 68); fill-opacity: 1; white-space: pre;" transform="translate(165.31879487326142,237.04270990740167)scale(0.602759764096472)"><tspan class="line" dy="0em" x="0" y="0">Medium skill</tspan><tspan class="line" dy="1.3em" x="0" y="0">71%</tspan></text></g></g><g class="slice cursor-pointer"><path class="surface" d="M242.26055972930124,296.1356586797322L234.5211194586025,352.2713173594645A113.33333333333333,113.33333333333333 0,0,0 308.1197277291146,337.2961545650086L279.0598638645573,288.6480772825043A56.666666666666664,56.666666666666664 0,0,1 242.26055972930124,296.1356586797322Z" style="pointer-events: all; stroke-width: 1; fill: rgb(143, 188, 143); fill-opacity: 1; stroke: rgb(255, 255, 255); stroke-opacity: 1;"/><g class="slicetext"><text data-notex="1" class="slicetext" text-anchor="middle" x="0" y="0" style="font-family: Helvetica; font-size: 16px; fill: rgb(68, 68, 68); fill-opacity: 1; white-space: pre;" transform="translate(270.77545056503595,321.91244391923954)scale(0.8206203027058742)rotate(78.49898580121703)"><tspan class="line" dy="0em" x="0" y="0">High skill</tspan><tspan class="line" dy="1.3em" x="0" y="0">16%</tspan></text></g></g><g class="slice cursor-pointer"><path class="surface" d="M279.0598638645573,288.6480772825043L308.1197277291146,337.2961545650086A113.33333333333333,113.33333333333333 0,0,0 357.16791243914076,276.8711674331191L303.5839562195704,258.43558371655956A56.666666666666664,56.666666666666664 0,0,1 279.0598638645573,288.6480772825043Z" style="pointer-events: all; stroke-width: 1; fill: rgb(135, 206, 250); fill-opacity: 1; stroke: rgb(255, 255, 255); stroke-opacity: 1;"/><g class="slicetext"><text data-notex="1" class="slicetext" text-anchor="middle" x="0" y="0" style="font-family: Helvetica; font-size: 16px; fill: rgb(68, 68, 68); fill-opacity: 1; white-space: pre;" transform="translate(317.6111191901258,291.0723861618698)scale(0.602759764096472)rotate(39.06693711967546)"><tspan class="line" dy="0em" x="0" y="0">Medium skill</tspan><tspan class="line" dy="1.3em" x="0" y="0">68%</tspan></text></g></g><g class="slice cursor-pointer"><path class="surface" d="M303.5839562195704,258.43558371655956L357.16791243914076,276.8711674331191A113.33333333333333,113.33333333333333 0,0,0 362.88261878395684,250.09746606433077L306.44130939197845,245.0487330321654A56.666666666666664,56.666666666666664 0,0,1 303.5839562195704,258.43558371655956Z" style="pointer-events: all; stroke-width: 1; fill: rgb(135, 206, 250); fill-opacity: 1; stroke: rgb(255, 255, 255); stroke-opacity: 1;"/><g class="slicetext"><text data-notex="1" class="slicetext" text-anchor="middle" x="0" y="0" style="font-family: Helvetica; font-size: 16px; fill: rgb(68, 68, 68); fill-opacity: 1; white-space: pre;" transform="translate(345.4569376421582,257.8897333521333)scale(0.495348975267672)rotate(12.048681541582198)"><tspan class="line" dy="0em" x="0" y="0">Low skill</tspan><tspan class="line" dy="1.3em" x="0" y="0">23%</tspan></text></g></g><g class="slice cursor-pointer"><path class="surface" d="M306.44130939197845,245.0487330321654L362.88261878395684,250.09746606433077A113.33333333333333,113.33333333333333 0,0,0 363.3333333333333,240.00000000000003L306.6666666666667,240A56.666666666666664,56.666666666666664 0,0,1 306.44130939197845,245.0487330321654Z" style="pointer-events: all; stroke-width: 1; fill: rgb(135, 206, 250); fill-opacity: 1; stroke: rgb(255, 255, 255); stroke-opacity: 1;"/><g class="slicetext"><text data-notex="1" class="slicetext" text-anchor="middle" x="0" y="0" style="font-family: Helvetica; font-size: 16px; fill: rgb(68, 68, 68); fill-opacity: 1; white-space: pre;" transform="translate(355.75519393636296,243.64025864510015)scale(0.21996394098565503)rotate(2.555780933062863)"><tspan class="line" dy="0em" x="0" y="0">High skill</tspan><tspan class="line" dy="1.3em" x="0" y="0">9%</tspan></text></g></g><g class="slice"><path class="surface" d="M363.3333333333333,240L420,240A170,170 0,0,0 419.9861936478861,237.83344303020746L363.32412909859073,238.55562868680497A113.33333333333333,113.33333333333333 0,0,1 363.3333333333333,240Z" style="pointer-events: all; stroke-width: 1; fill: rgb(218, 112, 214); fill-opacity: 1; stroke: rgb(255, 255, 255); stroke-opacity: 1; opacity: 1;"/><g class="slicetext"><text data-notex="1" class="slicetext" text-anchor="middle" x="0" y="0" style="font-family: Helvetica; font-size: 16px; fill: rgb(68, 68, 68); fill-opacity: 1; white-space: pre;" transform="translate(417.4403470752424,238.66987776105992)scale(0.053626654121956205)rotate(-0.36511156186611515)"><tspan class="line" dy="0em" x="0" y="0">High comfort</tspan><tspan class="line" dy="1.3em" x="0" y="0">14%</tspan></text></g></g><g class="slice"><path class="surface" d="M363.32412909859073,238.55562868680497L419.9861936478861,237.83344303020746A170,170 0,0,0 419.65495331108673,229.17425212685137L363.10330220739115,232.78283475123425A113.33333333333333,113.33333333333333 0,0,1 363.32412909859073,238.55562868680497Z" style="pointer-events: all; stroke-width: 1; fill: rgb(218, 112, 214); fill-opacity: 1; stroke: rgb(255, 255, 255); stroke-opacity: 1; opacity: 1;"/><g class="slicetext"><text data-notex="1" class="slicetext" text-anchor="middle" x="0" y="0" style="font-family: Helvetica; font-size: 16px; fill: rgb(68, 68, 68); fill-opacity: 1; white-space: pre;" transform="translate(408.32269513594673,233.00414535070826)scale(0.19135680491163456)rotate(-2.190669371196691)"><tspan class="line" dy="0em" x="0" y="0">Medium comfort</tspan><tspan class="line" dy="1.3em" x="0" y="0">57%</tspan></text></g></g><g class="slice"><path class="surface" d="M363.10330220739115,232.78283475123425L419.65495331108673,229.17425212685137A170,170 0,0,0 419.3239281759353,224.85380090350392L362.8826187839569,229.90253393566928A113.33333333333333,113.33333333333333 0,0,1 363.10330220739115,232.78283475123425Z" style="pointer-events: all; stroke-width: 1; fill: rgb(218, 112, 214); fill-opacity: 1; stroke: rgb(255, 255, 255); stroke-opacity: 1; opacity: 1;"/><g class="slicetext"><text data-notex="1" class="slicetext" text-anchor="middle" x="0" y="0" style="font-family: Helvetica; font-size: 16px; fill: rgb(68, 68, 68); fill-opacity: 1; white-space: pre;" transform="translate(414.69254286559806,226.86794170666766)scale(0.10437981753943401)rotate(-4.3813387423934955)"><tspan class="line" dy="0em" x="0" y="0">Low comfort</tspan><tspan class="line" dy="1.3em" x="0" y="0">29%</tspan></text></g></g><g class="slice"><path class="surface" d="M362.8826187839569,229.90253393566928L419.3239281759353,224.85380090350392A170,170 0,0,0 418.62121391749434,218.39245000027498L362.4141426116629,225.59496666684998A113.33333333333333,113.33333333333333 0,0,1 362.8826187839569,229.90253393566928Z" style="pointer-events: all; stroke-width: 1; fill: rgb(218, 112, 214); fill-opacity: 1; stroke: rgb(255, 255, 255); stroke-opacity: 1; opacity: 1;"/><g class="slicetext"><text data-notex="1" class="slicetext" text-anchor="middle" x="0" y="0" style="font-family: Helvetica; font-size: 16px; fill: rgb(68, 68, 68); fill-opacity: 1; white-space: pre;" transform="translate(411.97215936979944,221.6327628842128)scale(0.1523152513201382)rotate(-6.206896551724185)"><tspan class="line" dy="0em" x="0" y="0">Low comfort</tspan><tspan class="line" dy="1.3em" x="0" y="0">8%</tspan></text></g></g><g class="slice"><path class="surface" d="M362.4141426116629,225.59496666684998L418.62121391749434,218.39245000027498A170,170 0,0,0 410.03395910529014,182.64904592697405L356.6893060701934,201.7660306179827A113.33333333333333,113.33333333333333 0,0,1 362.4141426116629,225.59496666684998Z" style="pointer-events: all; stroke-width: 1; fill: rgb(218, 112, 214); fill-opacity: 1; stroke: rgb(255, 255, 255); stroke-opacity: 1; opacity: 1;"/><g class="slicetext"><text data-notex="1" class="slicetext" text-anchor="middle" x="0" y="0" style="font-family: Helvetica; font-size: 16px; fill: rgb(68, 68, 68); fill-opacity: 1; white-space: pre;" transform="translate(386.95808479194636,204.71374909297677)scale(0.47215914050284474)rotate(-13.509127789046715)"><tspan class="line" dy="0em" x="0" y="0">Medium comfort</tspan><tspan class="line" dy="1.3em" x="0" y="0">44%</tspan></text></g></g><g class="slice"><path class="surface" d="M356.6893060701934,201.7660306179827L410.03395910529014,182.64904592697405A170,170 0,0,0 391.6125953665892,145.9474995891195L344.40839691105947,177.29833305941298A113.33333333333333,113.33333333333333 0,0,1 356.6893060701934,201.7660306179827Z" style="pointer-events: all; stroke-width: 1; fill: rgb(218, 112, 214); fill-opacity: 1; stroke: rgb(255, 255, 255); stroke-opacity: 1; opacity: 1;"/><g class="slicetext"><text data-notex="1" class="slicetext" text-anchor="middle" x="0" y="0" style="font-family: Helvetica; font-size: 16px; fill: rgb(68, 68, 68); fill-opacity: 1; white-space: pre;" transform="translate(374.98018221012677,174.00454131449322)scale(0.5947602920013405)rotate(-26.653144016227202)"><tspan class="line" dy="0em" x="0" y="0">High comfort</tspan><tspan class="line" dy="1.3em" x="0" y="0">49%</tspan></text></g></g><g class="slice"><path class="surface" d="M344.40839691105947,177.29833305941298L391.6125953665892,145.9474995891195A170,170 0,0,0 331.5371470848891,90.82998409446637L304.3580980565927,140.55332272964424A113.33333333333333,113.33333333333333 0,0,1 344.40839691105947,177.29833305941298Z" style="pointer-events: all; stroke-width: 1; fill: rgb(218, 112, 214); fill-opacity: 1; stroke: rgb(255, 255, 255); stroke-opacity: 1; opacity: 1;"/><g class="slicetext"><text data-notex="1" class="slicetext" text-anchor="middle" x="0" y="0" style="font-family: Helvetica; font-size: 16px; fill: rgb(68, 68, 68); fill-opacity: 1; white-space: pre;" transform="translate(343.37820492898845,133.90590329039622)scale(0.5947602920013405)rotate(-47.464503042596334)"><tspan class="line" dy="0em" x="0" y="0">High comfort</tspan><tspan class="line" dy="1.3em" x="0" y="0">86%</tspan></text></g></g><g class="slice"><path class="surface" d="M304.3580980565927,140.55332272964424L331.5371470848891,90.82998409446637A170,170 0,0,0 319.9031335013791,85.0369336690566L296.60208900091936,136.6912891127044A113.33333333333333,113.33333333333333 0,0,1 304.3580980565927,140.55332272964424Z" style="pointer-events: all; stroke-width: 1; fill: rgb(218, 112, 214); fill-opacity: 1; stroke: rgb(255, 255, 255); stroke-opacity: 1; opacity: 1;"/><g class="slicetext"><text data-notex="1" class="slicetext" text-anchor="middle" x="0" y="0" style="font-family: Helvetica; font-size: 16px; fill: rgb(68, 68, 68); fill-opacity: 1; white-space: pre;" transform="translate(317.3635524877257,101.75551776665206)scale(0.2689404012411346)rotate(-63.529411764705856)"><tspan class="line" dy="0em" x="0" y="0">Medium comfort</tspan><tspan class="line" dy="1.3em" x="0" y="0">14%</tspan></text></g></g><g class="slice"><path class="surface" d="M296.60208900091936,136.6912891127044L319.9031335013791,85.0369336690566A170,170 0,0,0 319.9031335013791,85.0369336690566L296.60208900091936,136.6912891127044A113.33333333333333,113.33333333333333 0,0,1 296.60208900091936,136.6912891127044Z" style="pointer-events: all; stroke-width: 1; fill: rgb(171, 99, 250); fill-opacity: 1; stroke: rgb(255, 255, 255); stroke-opacity: 1; opacity: 1;"/><g class="slicetext"><text data-notex="1" class="slicetext" text-anchor="middle" x="0" y="0" style="font-family: Helvetica; font-size: 16px; fill: rgb(68, 68, 68); fill-opacity: 1; white-space: pre;" transform="translate(250,98.33333333333334)scale(0)"><tspan class="line" dy="0em" x="0" y="0">Low comfort</tspan><tspan class="line" dy="1.3em" x="0" y="0">0%</tspan></text></g></g><g class="slice"><path class="surface" d="M296.6020890009194,136.6912891127044L319.9031335013791,85.0369336690566A170,170 0,0,0 276.43335135808445,72.06763880663127L267.62223423872297,128.0450925377542A113.33333333333333,113.33333333333333 0,0,1 296.6020890009194,136.6912891127044Z" style="pointer-events: all; stroke-width: 1; fill: rgb(143, 188, 143); fill-opacity: 1; stroke: rgb(255, 255, 255); stroke-opacity: 1; opacity: 1;"/><g class="slicetext"><text data-notex="1" class="slicetext" text-anchor="middle" x="0" y="0" style="font-family: Helvetica; font-size: 16px; fill: rgb(68, 68, 68); fill-opacity: 1; white-space: pre;" transform="translate(288.2095849564748,103.82854884225806)scale(0.47215914050284474)rotate(-73.3874239350913)"><tspan class="line" dy="0em" x="0" y="0">Medium comfort</tspan><tspan class="line" dy="1.3em" x="0" y="0">53%</tspan></text></g></g><g class="slice"><path class="surface" d="M267.62223423872297,128.0450925377542L276.43335135808445,72.06763880663127A170,170 0,0,0 269.9948049896389,71.17995446800072L263.3298699930926,127.45330297866714A113.33333333333333,113.33333333333333 0,0,1 267.62223423872297,128.0450925377542Z" style="pointer-events: all; stroke-width: 1; fill: rgb(143, 188, 143); fill-opacity: 1; stroke: rgb(255, 255, 255); stroke-opacity: 1; opacity: 1;"/><g class="slicetext"><text data-notex="1" class="slicetext" text-anchor="middle" x="0" y="0" style="font-family: Helvetica; font-size: 16px; fill: rgb(68, 68, 68); fill-opacity: 1; white-space: pre;" transform="translate(271.49045876565367,78.67202290227233)scale(0.1518130281636915)rotate(-82.1501014198783)"><tspan class="line" dy="0em" x="0" y="0">High comfort</tspan><tspan class="line" dy="1.3em" x="0" y="0">8%</tspan></text></g></g><g class="slice"><path class="surface" d="M263.3298699930926,127.45330297866714L269.9948049896389,71.17995446800072A170,170 0,0,0 235.39337667783653,70.6286725708143L240.26225111855769,127.08578171387622A113.33333333333333,113.33333333333333 0,0,1 263.3298699930926,127.45330297866714Z" style="pointer-events: all; stroke-width: 1; fill: rgb(143, 188, 143); fill-opacity: 1; stroke: rgb(255, 255, 255); stroke-opacity: 1; opacity: 1;"/><g class="slicetext"><text data-notex="1" class="slicetext" text-anchor="middle" x="0" y="0" style="font-family: Helvetica; font-size: 16px; fill: rgb(68, 68, 68); fill-opacity: 1; white-space: pre;" transform="translate(249.31887931318963,97.83464227710022)scale(0.6004126115534841)rotate(-89.08722109533471)"><tspan class="line" dy="0em" x="0" y="0">Low comfort</tspan><tspan class="line" dy="1.3em" x="0" y="0">40%</tspan></text></g></g><g class="slice"><path class="surface" d="M240.26225111855769,127.08578171387622L235.39337667783653,70.6286725708143A170,170 0,0,0 85.22297061876824,281.81543480937023L140.14864707917883,267.87695653958014A113.33333333333333,113.33333333333333 0,0,1 240.26225111855769,127.08578171387622Z" style="pointer-events: all; stroke-width: 1; fill: rgb(143, 188, 143); fill-opacity: 1; stroke: rgb(255, 255, 255); stroke-opacity: 1; opacity: 1;"/><g class="slicetext"><text data-notex="1" class="slicetext" text-anchor="middle" x="0" y="0" style="font-family: Helvetica; font-size: 16px; fill: rgb(68, 68, 68); fill-opacity: 1; white-space: pre;" transform="translate(108.33008344002927,237.68346921690792)scale(0.47215914050284474)"><tspan class="line" dy="0em" x="0" y="0">Medium comfort</tspan><tspan class="line" dy="1.3em" x="0" y="0">59%</tspan></text></g></g><g class="slice"><path class="surface" d="M140.14864707917883,267.87695653958014L85.22297061876824,281.81543480937023A170,170 0,0,0 179.11080599950495,394.51447237705656L202.7405373330033,343.00964825137106A113.33333333333333,113.33333333333333 0,0,1 140.14864707917883,267.87695653958014Z" style="pointer-events: all; stroke-width: 1; fill: rgb(143, 188, 143); fill-opacity: 1; stroke: rgb(255, 255, 255); stroke-opacity: 1; opacity: 1;"/><g class="slicetext"><text data-notex="1" class="slicetext" text-anchor="middle" x="0" y="0" style="font-family: Helvetica; font-size: 16px; fill: rgb(68, 68, 68); fill-opacity: 1; white-space: pre;" transform="translate(139.3160218558983,328.41114460697224)scale(0.5947602920013405)rotate(-39.79716024340769)"><tspan class="line" dy="0em" x="0" y="0">High comfort</tspan><tspan class="line" dy="1.3em" x="0" y="0">31%</tspan></text></g></g><g class="slice"><path class="surface" d="M202.7405373330033,343.00964825137106L179.11080599950495,394.51447237705656A170,170 0,0,0 226.78167918790373,408.4069760391967L234.5211194586025,352.2713173594645A113.33333333333333,113.33333333333333 0,0,1 202.7405373330033,343.00964825137106Z" style="pointer-events: all; stroke-width: 1; fill: rgb(143, 188, 143); fill-opacity: 1; stroke: rgb(255, 255, 255); stroke-opacity: 1; opacity: 1;"/><g class="slicetext"><text data-notex="1" class="slicetext" text-anchor="middle" x="0" y="0" style="font-family: Helvetica; font-size: 16px; fill: rgb(68, 68, 68); fill-opacity: 1; white-space: pre;" transform="translate(207.46305687881352,375.1147956788638)scale(0.6185606254288407)rotate(-73.75253549695742)"><tspan class="line" dy="0em" x="0" y="0">Low comfort</tspan><tspan class="line" dy="1.3em" x="0" y="0">10%</tspan></text></g></g><g class="slice"><path class="surface" d="M234.5211194586025,352.2713173594645L226.78167918790373,408.4069760391967A170,170 0,0,0 311.91584790402754,398.3238067326747L291.2772319360184,345.5492044884498A113.33333333333333,113.33333333333333 0,0,1 234.5211194586025,352.2713173594645Z" style="pointer-events: all; stroke-width: 1; fill: rgb(143, 188, 143); fill-opacity: 1; stroke: rgb(255, 255, 255); stroke-opacity: 1; opacity: 1;"/><g class="slicetext"><text data-notex="1" class="slicetext" text-anchor="middle" x="0" y="0" style="font-family: Helvetica; font-size: 16px; fill: rgb(68, 68, 68); fill-opacity: 1; white-space: pre;" transform="translate(269.5175169698677,379.9804023558935)scale(0.5947602920013405)rotate(83.24543610547676)"><tspan class="line" dy="0em" x="0" y="0">High comfort</tspan><tspan class="line" dy="1.3em" x="0" y="0">75%</tspan></text></g></g><g class="slice"><path class="surface" d="M291.2772319360184,345.5492044884498L311.91584790402754,398.3238067326747A170,170 0,0,0 313.92856975675215,397.5218650500815L292.61904650450145,345.0145767000543A113.33333333333333,113.33333333333333 0,0,1 291.2772319360184,345.5492044884498Z" style="pointer-events: all; stroke-width: 1; fill: rgb(143, 188, 143); fill-opacity: 1; stroke: rgb(255, 255, 255); stroke-opacity: 1; opacity: 1;"/><g class="slicetext"><text data-notex="1" class="slicetext" text-anchor="middle" x="0" y="0" style="font-family: Helvetica; font-size: 16px; fill: rgb(68, 68, 68); fill-opacity: 1; white-space: pre;" transform="translate(312.2582329849804,395.5447219151307)scale(0.05368919591341893)rotate(68.27586206896558)"><tspan class="line" dy="0em" x="0" y="0">Low comfort</tspan><tspan class="line" dy="1.3em" x="0" y="0">2%</tspan></text></g></g><g class="slice"><path class="surface" d="M292.61904650450145,345.0145767000543L313.92856975675215,397.5218650500815A170,170 0,0,0 337.17959159367183,385.9442318475128L308.1197277291146,337.2961545650086A113.33333333333333,113.33333333333333 0,0,1 292.61904650450145,345.0145767000543Z" style="pointer-events: all; stroke-width: 1; fill: rgb(143, 188, 143); fill-opacity: 1; stroke: rgb(255, 255, 255); stroke-opacity: 1; opacity: 1;"/><g class="slicetext"><text data-notex="1" class="slicetext" text-anchor="middle" x="0" y="0" style="font-family: Helvetica; font-size: 16px; fill: rgb(68, 68, 68); fill-opacity: 1; white-space: pre;" transform="translate(315.5574785414157,366.6776846748508)scale(0.4523914157504667)rotate(63.529411764705856)"><tspan class="line" dy="0em" x="0" y="0">Medium comfort</tspan><tspan class="line" dy="1.3em" x="0" y="0">23%</tspan></text></g></g><g class="slice"><path class="surface" d="M308.1197277291146,337.2961545650086L337.17959159367183,385.9442318475128A170,170 0,0,0 358.3954628572611,370.95962596143943L322.2636419048407,327.3064173076263A113.33333333333333,113.33333333333333 0,0,1 308.1197277291146,337.2961545650086Z" style="pointer-events: all; stroke-width: 1; fill: rgb(135, 206, 250); fill-opacity: 1; stroke: rgb(255, 255, 255); stroke-opacity: 1; opacity: 1;"/><g class="slicetext"><text data-notex="1" class="slicetext" text-anchor="middle" x="0" y="0" style="font-family: Helvetica; font-size: 16px; fill: rgb(68, 68, 68); fill-opacity: 1; white-space: pre;" transform="translate(336.96456828362176,358.9648995195381)scale(0.4895581802412862)rotate(54.766734279918865)"><tspan class="line" dy="0em" x="0" y="0">Low comfort</tspan><tspan class="line" dy="1.3em" x="0" y="0">22%</tspan></text></g></g><g class="slice"><path class="surface" d="M322.2636419048407,327.3064173076263L358.3954628572611,370.95962596143943A170,170 0,0,0 366.51507695530984,363.79110162729074L327.67671797020654,322.5274010848605A113.33333333333333,113.33333333333333 0,0,1 322.2636419048407,327.3064173076263Z" style="pointer-events: all; stroke-width: 1; fill: rgb(135, 206, 250); fill-opacity: 1; stroke: rgb(255, 255, 255); stroke-opacity: 1; opacity: 1;"/><g class="slicetext"><text data-notex="1" class="slicetext" text-anchor="middle" x="0" y="0" style="font-family: Helvetica; font-size: 16px; fill: rgb(68, 68, 68); fill-opacity: 1; white-space: pre;" transform="translate(355.80859013296697,358.0712574460296)scale(0.23951913894675822)rotate(48.559837728194736)"><tspan class="line" dy="0em" x="0" y="0">High comfort</tspan><tspan class="line" dy="1.3em" x="0" y="0">9%</tspan></text></g></g><g class="slice"><path class="surface" d="M327.67671797020654,322.5274010848605L366.51507695530984,363.79110162729074A170,170 0,0,0 410.75186865871115,295.30675114967863L357.16791243914076,276.8711674331191A113.33333333333333,113.33333333333333 0,0,1 327.67671797020654,322.5274010848605Z" style="pointer-events: all; stroke-width: 1; fill: rgb(135, 206, 250); fill-opacity: 1; stroke: rgb(255, 255, 255); stroke-opacity: 1; opacity: 1;"/><g class="slicetext"><text data-notex="1" class="slicetext" text-anchor="middle" x="0" y="0" style="font-family: Helvetica; font-size: 16px; fill: rgb(68, 68, 68); fill-opacity: 1; white-space: pre;" transform="translate(370.04254082168785,314.7825172485172)scale(0.47215914050284474)rotate(32.86004056795133)"><tspan class="line" dy="0em" x="0" y="0">Medium comfort</tspan><tspan class="line" dy="1.3em" x="0" y="0">69%</tspan></text></g></g><g class="slice"><path class="surface" d="M357.16791243914076,276.8711674331191L410.75186865871115,295.30675114967863A170,170 0,0,0 416.90297815281053,272.3016390253258L361.26865210187367,261.53442601688386A113.33333333333333,113.33333333333333 0,0,1 357.16791243914076,276.8711674331191Z" style="pointer-events: all; stroke-width: 1; fill: rgb(135, 206, 250); fill-opacity: 1; stroke: rgb(255, 255, 255); stroke-opacity: 1; opacity: 1;"/><g class="slicetext"><text data-notex="1" class="slicetext" text-anchor="middle" x="0" y="0" style="font-family: Helvetica; font-size: 16px; fill: rgb(68, 68, 68); fill-opacity: 1; white-space: pre;" transform="translate(394.3153140478459,276.2571444873641)scale(0.4587681127592219)rotate(14.969574036511176)"><tspan class="line" dy="0em" x="0" y="0">Low comfort</tspan><tspan class="line" dy="1.3em" x="0" y="0">58%</tspan></text></g></g><g class="slice"><path class="surface" d="M361.26865210187367,261.53442601688386L416.90297815281053,272.3016390253258A170,170 0,0,0 418.01573056754665,265.89815209341333L362.0104870450311,257.26543472894224A113.33333333333333,113.33333333333333 0,0,1 361.26865210187367,261.53442601688386Z" style="pointer-events: all; stroke-width: 1; fill: rgb(135, 206, 250); fill-opacity: 1; stroke: rgb(255, 255, 255); stroke-opacity: 1; opacity: 1;"/><g class="slicetext"><text data-notex="1" class="slicetext" text-anchor="middle" x="0" y="0" style="font-family: Helvetica; font-size: 16px; fill: rgb(68, 68, 68); fill-opacity: 1; white-space: pre;" transform="translate(410.47585396808597,267.1303576389386)scale(0.1518130281636931)rotate(9.858012170385393)"><tspan class="line" dy="0em" x="0" y="0">High comfort</tspan><tspan class="line" dy="1.3em" x="0" y="0">16%</tspan></text></g></g><g class="slice"><path class="surface" d="M362.0104870450311,257.26543472894224L418.01573056754665,265.89815209341333A170,170 0,0,0 419.3239281759353,255.14619909649602L362.8826187839569,250.09746606433066A113.33333333333333,113.33333333333333 0,0,1 362.0104870450311,257.26543472894224Z" style="pointer-events: all; stroke-width: 1; fill: rgb(135, 206, 250); fill-opacity: 1; stroke: rgb(255, 255, 255); stroke-opacity: 1; opacity: 1;"/><g class="slicetext"><text data-notex="1" class="slicetext" text-anchor="middle" x="0" y="0" style="font-family: Helvetica; font-size: 16px; fill: rgb(68, 68, 68); fill-opacity: 1; white-space: pre;" transform="translate(405.04616713729774,257.72084291637213)scale(0.23141081050857873)rotate(6.937119675456415)"><tspan class="line" dy="0em" x="0" y="0">Medium comfort</tspan><tspan class="line" dy="1.3em" x="0" y="0">26%</tspan></text></g></g><g class="slice"><path class="surface" d="M362.88261878395684,250.09746606433077L419.3239281759353,255.14619909649616A170,170 0,0,0 419.65495331108673,250.8257478731487L363.10330220739115,247.2171652487658A113.33333333333333,113.33333333333333 0,0,1 362.88261878395684,250.09746606433077Z" style="pointer-events: all; stroke-width: 1; fill: rgb(135, 206, 250); fill-opacity: 1; stroke: rgb(255, 255, 255); stroke-opacity: 1; opacity: 1;"/><g class="slicetext"><text data-notex="1" class="slicetext" text-anchor="middle" x="0" y="0" style="font-family: Helvetica; font-size: 16px; fill: rgb(68, 68, 68); fill-opacity: 1; white-space: pre;" transform="translate(413.39145291751305,252.0139964213432)scale(0.10258042918672901)rotate(4.381338742393552)"><tspan class="line" dy="0em" x="0" y="0">Medium comfort</tspan><tspan class="line" dy="1.3em" x="0" y="0">29%</tspan></text></g></g><g class="slice"><path class="surface" d="M363.10330220739115,247.2171652487658L419.65495331108673,250.8257478731487A170,170 0,0,0 419.65495331108673,250.8257478731487L363.10330220739115,247.2171652487658A113.33333333333333,113.33333333333333 0,0,1 363.10330220739115,247.2171652487658Z" style="pointer-events: all; stroke-width: 1; fill: rgb(171, 99, 250); fill-opacity: 1; stroke: rgb(255, 255, 255); stroke-opacity: 1; opacity: 1;"/><g class="slicetext"><text data-notex="1" class="slicetext" text-anchor="middle" x="0" y="0" style="font-family: Helvetica; font-size: 16px; fill: rgb(68, 68, 68); fill-opacity: 1; white-space: pre;" transform="translate(250,98.33333333333334)scale(0)"><tspan class="line" dy="0em" x="0" y="0">Low comfort</tspan><tspan class="line" dy="1.3em" x="0" y="0">0%</tspan></text></g></g><g class="slice"><path class="surface" d="M363.10330220739115,247.2171652487658L419.65495331108673,250.8257478731487A170,170 0,0,0 420,240.00000000000003L363.3333333333333,240.00000000000003A113.33333333333333,113.33333333333333 0,0,1 363.10330220739115,247.2171652487658Z" style="pointer-events: all; stroke-width: 1; fill: rgb(135, 206, 250); fill-opacity: 1; stroke: rgb(255, 255, 255); stroke-opacity: 1; opacity: 1;"/><g class="slicetext"><text data-notex="1" class="slicetext" text-anchor="middle" x="0" y="0" style="font-family: Helvetica; font-size: 16px; fill: rgb(68, 68, 68); fill-opacity: 1; white-space: pre;" transform="translate(408.4968650096409,243.87599831378742)scale(0.23951913894675822)rotate(1.8255578093306326)"><tspan class="line" dy="0em" x="0" y="0">High comfort</tspan><tspan class="line" dy="1.3em" x="0" y="0">71%</tspan></text></g></g></g></g><g class="glimages"/><defs id="topdefs-b81c6a"><g class="clips"/></defs><g class="layer-above"><g class="imagelayer"/><g class="shapelayer"/></g><g class="infolayer"><g class="g-gtitle"><text class="gtitle" x="250" y="30" text-anchor="middle" dy="0em" style="font-family: Helvetica; font-size: 22px; fill: rgb(0, 0, 0); opacity: 1; font-weight: normal; white-space: pre;">Skills of the participants</text></g></g></svg>