<svg class="main-svg" xmlns="http://www.w3.org/2000/svg" xmlns:xlink="http://www.w3.org/1999/xlink" width="500" height="500" style="" viewBox="0 0 500 500"><rect x="0" y="0" width="500" height="500" style="fill: rgb(255, 255, 255); fill-opacity: 1;"/><defs id="defs-a662ba"><g class="clips"/><g class="gradients"/><g class="patterns"/></defs><g class="bglayer"/><g class="layer-below"><g class="imagelayer"/><g class="shapelayer"/></g><g class="cartesianlayer"/><g class="polarlayer"/><g class="smithlayer"/><g class="ternarylayer"/><g class="geolayer"/><g class="funnelarealayer"/><g class="pielayer"/><g class="iciclelayer"/><g class="treemaplayer"/><g class="sunburstlayer"><g class="trace sunburst" stroke-linejoin="round" style="opacity: 1;"><g class="slice cursor-pointer"><path class="surface" d="M250,240L306.6666666666667,240A56.666666666666664,56.666666666666664 0,1,0 215.8507039385088,285.22097621254693L250,240A0,0 0,1,1 250,240Z" style="pointer-events: all; stroke-width: 1; fill: rgb(143, 188, 143); fill-opacity: 1; stroke: rgb(255, 255, 255); stroke-opacity: 1;"/><g class="slicetext"><text data-notex="1" class="slicetext" text-anchor="middle" x="0" y="0" style="font-family: Helvetica; font-size: 16px; fill: rgb(68, 68, 68); fill-opacity: 1; white-space: pre;" transform="translate(241.04606038840345,213.97035189369967)scale(0.7311438461213664)rotate(63.529411764705856)"><tspan class="line" dy="0em" x="0" y="0">Balanced</tspan><tspan class="line" dy="1.3em" x="0" y="0">65%</tspan></text></g></g><g class="slice cursor-pointer"><path class="surface" d="M250,240L215.8507039385088,285.22097621254693A56.666666666666664,56.666666666666664 0,0,0 276.6376275296729,290.0154767117292L250,240A0,0 0,0,1 250,240Z" style="pointer-events: all; stroke-width: 1; fill: rgb(218, 112, 214); fill-opacity: 1; stroke: rgb(255, 255, 255); stroke-opacity: 1;"/><g class="slicetext"><text data-notex="1" class="slicetext" text-anchor="middle" x="0" y="0" style="font-family: Helvetica; font-size: 16px; fill: rgb(68, 68, 68); fill-opacity: 1; white-space: pre;" transform="translate(244.1759589748337,276.9660574071206)scale(0.5909564316103553)rotate(-85.49019607843138)"><tspan class="line" dy="0em" x="0" y="0">Analyst</tspan><tspan class="line" dy="1.3em" x="0" y="0">18%</tspan></text></g></g><g class="slice cursor-pointer"><path class="surface" d="M250,240L276.6376275296729,290.0154767117292A56.666666666666664,56.666666666666664 0,0,0 306.6666666666667,240L250,240A0,0 0,0,1 250,240Z" style="pointer-events: all; stroke-width: 1; fill: rgb(135, 206, 250); fill-opacity: 1; stroke: rgb(255, 255, 255); stroke-opacity: 1;"/><g class="slicetext"><text data-notex="1" class="slicetext" text-anchor="middle" x="0" y="0" style="font-family: Helvetica; font-size: 16px; fill: rgb(68, 68, 68); fill-opacity: 1; white-space: pre;" transform="translate(283.64066937742456,256.99046659183506)scale(0.5604464039496156)rotate(30.980392156862763)"><tspan class="line" dy="0em" x="0" y="0">Imaging</tspan><tspan class="line" dy="1.3em" x="0" y="0">17%</tspan></text></g></g><g class="slice cursor-pointer"><path class="surface" d="M306.6666666666667,240L363.3333333333333,240A113.33333333333333,113.33333333333333 0,0,0 141.09987233515164,208.6119984862978L195.54993616757582,224.3059992431489A56.666666666666664,56.666666666666664 0,0,1 306.6666666666667,240Z" style="pointer-events: all; stroke-width: 1; fill: rgb(143, 188, 143); fill-opacity: 1; stroke: rgb(255, 255, 255); stroke-opacity: 1;"/><g class="slicetext"><text data-notex="1" class="slicetext" text-anchor="middle" x="0" y="0" style="font-family: Helvetica; font-size: 16px; fill: rgb(68, 68, 68); fill-opacity: 1; white-space: pre;" transform="translate(258.91451097002187,155.73741304366501)scale(0.602759764096472)rotate(-81.96078431372553)"><tspan class="line" dy="0em" x="0" y="0">Medium skill</tspan><tspan class="line" dy="1.3em" x="0" y="0">70%</tspan></text></g></g><g class="slice cursor-pointer"><path class="surface" d="M195.54993616757582,224.3059992431489L141.09987233515164,208.6119984862978A113.33333333333333,113.33333333333333 0,0,0 144.6025030040666,281.6630780360339L197.3012515020333,260.83153901801694A56.666666666666664,56.666666666666664 0,0,1 195.54993616757582,224.3059992431489Z" style="pointer-events: all; stroke-width: 1; fill: rgb(143, 188, 143); fill-opacity: 1; stroke: rgb(255, 255, 255); stroke-opacity: 1;"/><g class="slicetext"><text data-notex="1" class="slicetext" text-anchor="middle" x="0" y="0" style="font-family: Helvetica; font-size: 16px; fill: rgb(68, 68, 68); fill-opacity: 1; white-space: pre;" transform="translate(165.49398026854675,240.02107486773448)scale(0.8206203027058742)rotate(-2.7450980392156907)"><tspan class="line" dy="0em" x="0" y="0">High skill</tspan><tspan class="line" dy="1.3em" x="0" y="0">16%</tspan></text></g></g><g class="slice cursor-pointer"><path class="surface" d="M197.3012515020333,260.83153901801694L144.6025030040666,281.6630780360339A113.33333333333333,113.33333333333333 0,0,0 181.7014078770176,330.4419524250938L215.8507039385088,285.22097621254693A56.666666666666664,56.666666666666664 0,0,1 197.3012515020333,260.83153901801694Z" style="pointer-events: all; stroke-width: 1; fill: rgb(143, 188, 143); fill-opacity: 1; stroke: rgb(255, 255, 255); stroke-opacity: 1;"/><g class="slicetext"><text data-notex="1" class="slicetext" text-anchor="middle" x="0" y="0" style="font-family: Helvetica; font-size: 16px; fill: rgb(68, 68, 68); fill-opacity: 1; white-space: pre;" transform="translate(179.402652342795,288.57124949285594)scale(0.8309118749770371)rotate(-37.25490196078431)"><tspan class="line" dy="0em" x="0" y="0">Low skill</tspan><tspan class="line" dy="1.3em" x="0" y="0">13%</tspan></text></g></g><g class="slice cursor-pointer"><path class="surface" d="M215.8507039385088,285.22097621254693L181.7014078770176,330.4419524250938A113.33333333333333,113.33333333333333 0,0,0 243.41025272347935,353.14159127074373L246.70512636173967,296.57079563537184A56.666666666666664,56.666666666666664 0,0,1 215.8507039385088,285.22097621254693Z" style="pointer-events: all; stroke-width: 1; fill: rgb(218, 112, 214); fill-opacity: 1; stroke: rgb(255, 255, 255); stroke-opacity: 1;"/><g class="slicetext"><text data-notex="1" class="slicetext" text-anchor="middle" x="0" y="0" style="font-family: Helvetica; font-size: 16px; fill: rgb(68, 68, 68); fill-opacity: 1; white-space: pre;" transform="translate(217.0801552624737,317.83027455598483)scale(0.8206203027058742)rotate(-69.8039215686274)"><tspan class="line" dy="0em" x="0" y="0">High skill</tspan><tspan class="line" dy="1.3em" x="0" y="0">52%</tspan></text></g></g><g class="slice cursor-pointer"><path class="surface" d="M246.70512636173967,296.57079563537184L243.41025272347935,353.14159127074373A113.33333333333333,113.33333333333333 0,0,0 294.8890401511044,344.06449211309774L272.4445200755522,292.03224605654884A56.666666666666664,56.666666666666664 0,0,1 246.70512636173967,296.57079563537184Z" style="pointer-events: all; stroke-width: 1; fill: rgb(218, 112, 214); fill-opacity: 1; stroke: rgb(255, 255, 255); stroke-opacity: 1;"/><g class="slicetext"><text data-notex="1" class="slicetext" text-anchor="middle" x="0" y="0" style="font-family: Helvetica; font-size: 16px; fill: rgb(68, 68, 68); fill-opacity: 1; white-space: pre;" transform="translate(267.6170991639946,322.88117930781715)scale(0.602759764096472)rotate(80)"><tspan class="line" dy="0em" x="0" y="0">Medium skill</tspan><tspan class="line" dy="1.3em" x="0" y="0">41%</tspan></text></g></g><g class="slice cursor-pointer"><path class="surface" d="M272.4445200755522,292.03224605654884L294.8890401511044,344.06449211309774A113.33333333333333,113.33333333333333 0,0,0 303.27525505934574,340.03095342345836L276.6376275296729,290.0154767117292A56.666666666666664,56.666666666666664 0,0,1 272.4445200755522,292.03224605654884Z" style="pointer-events: all; stroke-width: 1; fill: rgb(218, 112, 214); fill-opacity: 1; stroke: rgb(255, 255, 255); stroke-opacity: 1;"/><g class="slicetext"><text data-notex="1" class="slicetext" text-anchor="middle" x="0" y="0" style="font-family: Helvetica; font-size: 16px; fill: rgb(68, 68, 68); fill-opacity: 1; white-space: pre;" transform="translate(297.15113183147105,335.70068603318356)scale(0.2060403587987045)rotate(64.31372549019613)"><tspan class="line" dy="0em" x="0" y="0">Low skill</tspan><tspan class="line" dy="1.3em" x="0" y="0">7%</tspan></text></g></g><g class="slice cursor-pointer"><path class="surface" d="M276.6376275296729,290.0154767117292L303.27525505934574,340.03095342345836A113.33333333333333,113.33333333333333 0,0,0 356.2306989070638,279.49029063151085L303.1153494535319,259.7451453157554A56.666666666666664,56.666666666666664 0,0,1 276.6376275296729,290.0154767117292Z" style="pointer-events: all; stroke-width: 1; fill: rgb(135, 206, 250); fill-opacity: 1; stroke: rgb(255, 255, 255); stroke-opacity: 1;"/><g class="slicetext"><text data-notex="1" class="slicetext" text-anchor="middle" x="0" y="0" style="font-family: Helvetica; font-size: 16px; fill: rgb(68, 68, 68); fill-opacity: 1; white-space: pre;" transform="translate(315.6853241068093,293.52653793579384)scale(0.602759764096472)rotate(41.176470588235304)"><tspan class="line" dy="0em" x="0" y="0">Medium skill</tspan><tspan class="line" dy="1.3em" x="0" y="0">67%</tspan></text></g></g><g class="slice cursor-pointer"><path class="surface" d="M303.1153494535319,259.7451453157554L356.2306989070638,279.49029063151085A113.33333333333333,113.33333333333333 0,0,0 362.81342619005716,250.843215192228L306.4067130950286,245.421607596114A56.666666666666664,56.666666666666664 0,0,1 303.1153494535319,259.7451453157554Z" style="pointer-events: all; stroke-width: 1; fill: rgb(135, 206, 250); fill-opacity: 1; stroke: rgb(255, 255, 255); stroke-opacity: 1;"/><g class="slicetext"><text data-notex="1" class="slicetext" text-anchor="middle" x="0" y="0" style="font-family: Helvetica; font-size: 16px; fill: rgb(68, 68, 68); fill-opacity: 1; white-space: pre;" transform="translate(344.3429652879784,259.05456136852615)scale(0.5212896254919686)rotate(12.941176470588232)"><tspan class="line" dy="0em" x="0" y="0">Low skill</tspan><tspan class="line" dy="1.3em" x="0" y="0">24%</tspan></text></g></g><g class="slice cursor-pointer"><path class="surface" d="M306.4067130950286,245.421607596114L362.81342619005716,250.843215192228A113.33333333333333,113.33333333333333 0,0,0 363.3333333333333,239.99999999999991L306.6666666666667,239.99999999999997A56.666666666666664,56.666666666666664 0,0,1 306.4067130950286,245.421607596114Z" style="pointer-events: all; stroke-width: 1; fill: rgb(135, 206, 250); fill-opacity: 1; stroke: rgb(255, 255, 255); stroke-opacity: 1;"/><g class="slicetext"><text data-notex="1" class="slicetext" text-anchor="middle" x="0" y="0" style="font-family: Helvetica; font-size: 16px; fill: rgb(68, 68, 68); fill-opacity: 1; white-space: pre;" transform="translate(355.26147419017593,243.89776680802788)scale(0.2339789318624432)rotate(2.7450980392156907)"><tspan class="line" dy="0em" x="0" y="0">High skill</tspan><tspan class="line" dy="1.3em" x="0" y="0">9%</tspan></text></g></g><g class="slice"><path class="surface" d="M363.3333333333333,240L420,240A170,170 0,0,0 226.22535546571024,71.67066127003241L234.15023697714017,127.78044084668828A113.33333333333333,113.33333333333333 0,0,1 363.3333333333333,240Z" style="pointer-events: all; stroke-width: 1; fill: rgb(143, 188, 143); fill-opacity: 1; stroke: rgb(255, 255, 255); stroke-opacity: 1; opacity: 0.7;"/><g class="slicetext"><text data-notex="1" class="slicetext" text-anchor="middle" x="0" y="0" style="font-family: Helvetica; font-size: 16px; fill: rgb(68, 68, 68); fill-opacity: 1; white-space: pre;" transform="translate(340.989068653895,131.724306151158)scale(0.47215914050284474)rotate(-49.01960784313724)"><tspan class="line" dy="0em" x="0" y="0">Medium comfort</tspan><tspan class="line" dy="1.3em" x="0" y="0">60%</tspan></text></g></g><g class="slice"><path class="surface" d="M234.15023697714017,127.78044084668828L226.22535546571024,71.67066127003241A170,170 0,0,0 109.25910477980597,144.64801830785916L156.17273651987063,176.43201220523943A113.33333333333333,113.33333333333333 0,0,1 234.15023697714017,127.78044084668828Z" style="pointer-events: all; stroke-width: 1; fill: rgb(143, 188, 143); fill-opacity: 1; stroke: rgb(255, 255, 255); stroke-opacity: 1; opacity: 0.7;"/><g class="slicetext"><text data-notex="1" class="slicetext" text-anchor="middle" x="0" y="0" style="font-family: Helvetica; font-size: 16px; fill: rgb(68, 68, 68); fill-opacity: 1; white-space: pre;" transform="translate(177.5056421129829,118.2952688550358)scale(0.5947602920013405)rotate(58.039215686274474)"><tspan class="line" dy="0em" x="0" y="0">High comfort</tspan><tspan class="line" dy="1.3em" x="0" y="0">29%</tspan></text></g></g><g class="slice"><path class="surface" d="M156.17273651987063,176.43201220523943L109.25910477980597,144.64801830785916A170,170 0,0,0 86.64980850272747,192.9179977294467L141.09987233515164,208.6119984862978A113.33333333333333,113.33333333333333 0,0,1 156.17273651987063,176.43201220523943Z" style="pointer-events: all; stroke-width: 1; fill: rgb(143, 188, 143); fill-opacity: 1; stroke: rgb(255, 255, 255); stroke-opacity: 1; opacity: 0.7;"/><g class="slicetext"><text data-notex="1" class="slicetext" text-anchor="middle" x="0" y="0" style="font-family: Helvetica; font-size: 16px; fill: rgb(68, 68, 68); fill-opacity: 1; white-space: pre;" transform="translate(123.03867450021176,177.1810429187734)scale(0.6185606254288407)rotate(25.0980392156863)"><tspan class="line" dy="0em" x="0" y="0">Low comfort</tspan><tspan class="line" dy="1.3em" x="0" y="0">11%</tspan></text></g></g><g class="slice"><path class="surface" d="M141.09987233515164,208.6119984862978L86.64980850272747,192.9179977294467A170,170 0,0,0 83.33782050831928,273.5219021996484L138.89188033887953,262.34793479976565A113.33333333333333,113.33333333333333 0,0,1 141.09987233515164,208.6119984862978Z" style="pointer-events: all; stroke-width: 1; fill: rgb(143, 188, 143); fill-opacity: 1; stroke: rgb(255, 255, 255); stroke-opacity: 1; opacity: 0.7;"/><g class="slicetext"><text data-notex="1" class="slicetext" text-anchor="middle" x="0" y="0" style="font-family: Helvetica; font-size: 16px; fill: rgb(68, 68, 68); fill-opacity: 1; white-space: pre;" transform="translate(108.3703472594059,237.08195731736842)scale(0.5947602920013405)"><tspan class="line" dy="0em" x="0" y="0">High comfort</tspan><tspan class="line" dy="1.3em" x="0" y="0">73%</tspan></text></g></g><g class="slice"><path class="surface" d="M138.89188033887953,262.34793479976565L83.33782050831928,273.5219021996484A170,170 0,0,0 91.0631135402275,300.32467258488344L144.042075693485,280.2164483899223A113.33333333333333,113.33333333333333 0,0,1 138.89188033887953,262.34793479976565Z" style="pointer-events: all; stroke-width: 1; fill: rgb(143, 188, 143); fill-opacity: 1; stroke: rgb(255, 255, 255); stroke-opacity: 1; opacity: 0.7;"/><g class="slicetext"><text data-notex="1" class="slicetext" text-anchor="middle" x="0" y="0" style="font-family: Helvetica; font-size: 16px; fill: rgb(68, 68, 68); fill-opacity: 1; white-space: pre;" transform="translate(113.23014760551065,277.0099858006955)scale(0.47215914050284474)rotate(-16.078431372549062)"><tspan class="line" dy="0em" x="0" y="0">Medium comfort</tspan><tspan class="line" dy="1.3em" x="0" y="0">25%</tspan></text></g></g><g class="slice"><path class="surface" d="M144.042075693485,280.2164483899223L91.0631135402275,300.32467258488344A170,170 0,0,0 91.90375450609992,302.49461705405093L144.6025030040666,281.66307803603394A113.33333333333333,113.33333333333333 0,0,1 144.042075693485,280.2164483899223Z" style="pointer-events: all; stroke-width: 1; fill: rgb(143, 188, 143); fill-opacity: 1; stroke: rgb(255, 255, 255); stroke-opacity: 1; opacity: 0.7;"/><g class="slicetext"><text data-notex="1" class="slicetext" text-anchor="middle" x="0" y="0" style="font-family: Helvetica; font-size: 16px; fill: rgb(68, 68, 68); fill-opacity: 1; white-space: pre;" transform="translate(93.80561896469077,300.20725627153445)scale(0.057543739603386136)rotate(-21.17647058823536)"><tspan class="line" dy="0em" x="0" y="0">Low comfort</tspan><tspan class="line" dy="1.3em" x="0" y="0">2%</tspan></text></g></g><g class="slice"><path class="surface" d="M144.6025030040666,281.6630780360339L91.90375450609986,302.4946170540509A170,170 0,0,0 116.10983872475717,344.7541154976236L160.73989248317145,309.8360769984157A113.33333333333333,113.33333333333333 0,0,1 144.6025030040666,281.6630780360339Z" style="pointer-events: all; stroke-width: 1; fill: rgb(143, 188, 143); fill-opacity: 1; stroke: rgb(255, 255, 255); stroke-opacity: 1; opacity: 0.7;"/><g class="slicetext"><text data-notex="1" class="slicetext" text-anchor="middle" x="0" y="0" style="font-family: Helvetica; font-size: 16px; fill: rgb(68, 68, 68); fill-opacity: 1; white-space: pre;" transform="translate(125.91716675811635,308.4045471269635)scale(0.47215914050284474)rotate(-29.803921568627402)"><tspan class="line" dy="0em" x="0" y="0">Medium comfort</tspan><tspan class="line" dy="1.3em" x="0" y="0">53%</tspan></text></g></g><g class="slice"><path class="surface" d="M160.73989248317145,309.8360769984157L116.10983872475717,344.7541154976236A170,170 0,0,0 142.06884154031314,371.34254845079704L178.04589436020876,327.561698967198A113.33333333333333,113.33333333333333 0,0,1 160.73989248317145,309.8360769984157Z" style="pointer-events: all; stroke-width: 1; fill: rgb(143, 188, 143); fill-opacity: 1; stroke: rgb(255, 255, 255); stroke-opacity: 1; opacity: 0.7;"/><g class="slicetext"><text data-notex="1" class="slicetext" text-anchor="middle" x="0" y="0" style="font-family: Helvetica; font-size: 16px; fill: rgb(68, 68, 68); fill-opacity: 1; white-space: pre;" transform="translate(146.54730044512206,336.7622782712578)scale(0.6185606254288407)rotate(-44.31372549019602)"><tspan class="line" dy="0em" x="0" y="0">Low comfort</tspan><tspan class="line" dy="1.3em" x="0" y="0">40%</tspan></text></g></g><g class="slice"><path class="surface" d="M178.04589436020876,327.561698967198L142.06884154031314,371.34254845079704A170,170 0,0,0 147.5521118155264,375.6629286376407L181.7014078770176,330.4419524250938A113.33333333333333,113.33333333333333 0,0,1 178.04589436020876,327.561698967198Z" style="pointer-events: all; stroke-width: 1; fill: rgb(143, 188, 143); fill-opacity: 1; stroke: rgb(255, 255, 255); stroke-opacity: 1; opacity: 0.7;"/><g class="slicetext"><text data-notex="1" class="slicetext" text-anchor="middle" x="0" y="0" style="font-family: Helvetica; font-size: 16px; fill: rgb(68, 68, 68); fill-opacity: 1; white-space: pre;" transform="translate(148.89858864084982,367.0296598505738)scale(0.16204350429503037)rotate(-51.76470588235293)"><tspan class="line" dy="0em" x="0" y="0">High comfort</tspan><tspan class="line" dy="1.3em" x="0" y="0">8%</tspan></text></g></g><g class="slice"><path class="surface" d="M181.7014078770176,330.4419524250938L147.5521118155264,375.6629286376407A170,170 0,0,0 226.22535546571015,408.3293387299676L234.1502369771401,352.2195591533117A113.33333333333333,113.33333333333333 0,0,1 181.7014078770176,330.4419524250938Z" style="pointer-events: all; stroke-width: 1; fill: rgb(218, 112, 214); fill-opacity: 1; stroke: rgb(255, 255, 255); stroke-opacity: 1; opacity: 0.7;"/><g class="slicetext"><text data-notex="1" class="slicetext" text-anchor="middle" x="0" y="0" style="font-family: Helvetica; font-size: 16px; fill: rgb(68, 68, 68); fill-opacity: 1; white-space: pre;" transform="translate(192.9937865742498,369.6833263738124)scale(0.5947602920013405)rotate(-67.4509803921568)"><tspan class="line" dy="0em" x="0" y="0">High comfort</tspan><tspan class="line" dy="1.3em" x="0" y="0">86%</tspan></text></g></g><g class="slice"><path class="surface" d="M234.1502369771401,352.2195591533117L226.22535546571015,408.3293387299676A170,170 0,0,0 240.11537908521905,409.7123869061156L243.41025272347935,353.14159127074373A113.33333333333333,113.33333333333333 0,0,1 234.1502369771401,352.2195591533117Z" style="pointer-events: all; stroke-width: 1; fill: rgb(218, 112, 214); fill-opacity: 1; stroke: rgb(255, 255, 255); stroke-opacity: 1; opacity: 0.7;"/><g class="slicetext"><text data-notex="1" class="slicetext" text-anchor="middle" x="0" y="0" style="font-family: Helvetica; font-size: 16px; fill: rgb(68, 68, 68); fill-opacity: 1; white-space: pre;" transform="translate(233.4529836813708,392.07643244397985)scale(0.2848716918638732)rotate(-84.31372549019602)"><tspan class="line" dy="0em" x="0" y="0">Medium comfort</tspan><tspan class="line" dy="1.3em" x="0" y="0">14%</tspan></text></g></g><g class="slice"><path class="surface" d="M243.41025272347935,353.14159127074373L240.11537908521905,409.7123869061156A170,170 0,0,0 277.2257442963985,407.8057175650077L268.150496197599,351.87047837667177A113.33333333333333,113.33333333333333 0,0,1 243.41025272347935,353.14159127074373Z" style="pointer-events: all; stroke-width: 1; fill: rgb(218, 112, 214); fill-opacity: 1; stroke: rgb(255, 255, 255); stroke-opacity: 1; opacity: 0.7;"/><g class="slicetext"><text data-notex="1" class="slicetext" text-anchor="middle" x="0" y="0" style="font-family: Helvetica; font-size: 16px; fill: rgb(68, 68, 68); fill-opacity: 1; white-space: pre;" transform="translate(260.1646221744402,380.9685318375622)scale(0.5947602920013405)rotate(87.05882352941171)"><tspan class="line" dy="0em" x="0" y="0">High comfort</tspan><tspan class="line" dy="1.3em" x="0" y="0">47%</tspan></text></g></g><g class="slice"><path class="surface" d="M268.150496197599,351.87047837667177L277.2257442963985,407.8057175650077A170,170 0,0,0 310.86823434869166,398.72951221267186L290.5788228991278,345.8196748084479A113.33333333333333,113.33333333333333 0,0,1 268.150496197599,351.87047837667177Z" style="pointer-events: all; stroke-width: 1; fill: rgb(218, 112, 214); fill-opacity: 1; stroke: rgb(255, 255, 255); stroke-opacity: 1; opacity: 0.7;"/><g class="slicetext"><text data-notex="1" class="slicetext" text-anchor="middle" x="0" y="0" style="font-family: Helvetica; font-size: 16px; fill: rgb(68, 68, 68); fill-opacity: 1; white-space: pre;" transform="translate(289.0702819843021,375.927000844639)scale(0.47215914050284474)rotate(74.9019607843137)"><tspan class="line" dy="0em" x="0" y="0">Medium comfort</tspan><tspan class="line" dy="1.3em" x="0" y="0">44%</tspan></text></g></g><g class="slice"><path class="surface" d="M290.5788228991278,345.8196748084479L310.86823434869166,398.72951221267186A170,170 0,0,0 317.33356022665646,396.09673816964664L294.8890401511043,344.0644921130978A113.33333333333333,113.33333333333333 0,0,1 290.5788228991278,345.8196748084479Z" style="pointer-events: all; stroke-width: 1; fill: rgb(218, 112, 214); fill-opacity: 1; stroke: rgb(255, 255, 255); stroke-opacity: 1; opacity: 0.7;"/><g class="slicetext"><text data-notex="1" class="slicetext" text-anchor="middle" x="0" y="0" style="font-family: Helvetica; font-size: 16px; fill: rgb(68, 68, 68); fill-opacity: 1; white-space: pre;" transform="translate(312.0375072000585,390.23057610233025)scale(0.1626158117251454)rotate(67.84313725490199)"><tspan class="line" dy="0em" x="0" y="0">Low comfort</tspan><tspan class="line" dy="1.3em" x="0" y="0">9%</tspan></text></g></g><g class="slice"><path class="surface" d="M294.8890401511044,344.06449211309774L317.3335602266566,396.09673816964664A170,170 0,0,0 323.6853464896205,393.2007497132588L299.12356432641366,342.13383314217253A113.33333333333333,113.33333333333333 0,0,1 294.8890401511044,344.06449211309774Z" style="pointer-events: all; stroke-width: 1; fill: rgb(218, 112, 214); fill-opacity: 1; stroke: rgb(255, 255, 255); stroke-opacity: 1; opacity: 0.7;"/><g class="slicetext"><text data-notex="1" class="slicetext" text-anchor="middle" x="0" y="0" style="font-family: Helvetica; font-size: 16px; fill: rgb(68, 68, 68); fill-opacity: 1; white-space: pre;" transform="translate(317.2782423058561,385.68967484688807)scale(0.15829049330206915)rotate(65.49019607843138)"><tspan class="line" dy="0em" x="0" y="0">Medium comfort</tspan><tspan class="line" dy="1.3em" x="0" y="0">50%</tspan></text></g></g><g class="slice"><path class="surface" d="M299.12356432641366,342.13383314217253L323.6853464896205,393.2007497132588A170,170 0,0,0 327.85149551517657,391.12625399331L301.90099701011775,340.75083599554A113.33333333333333,113.33333333333333 0,0,1 299.12356432641366,342.13383314217253Z" style="pointer-events: all; stroke-width: 1; fill: rgb(218, 112, 214); fill-opacity: 1; stroke: rgb(255, 255, 255); stroke-opacity: 1; opacity: 0.7;"/><g class="slicetext"><text data-notex="1" class="slicetext" text-anchor="middle" x="0" y="0" style="font-family: Helvetica; font-size: 16px; fill: rgb(68, 68, 68); fill-opacity: 1; white-space: pre;" transform="translate(323.9838069112814,387.35058359716754)scale(0.11164968078784188)rotate(63.529411764705856)"><tspan class="line" dy="0em" x="0" y="0">Low comfort</tspan><tspan class="line" dy="1.3em" x="0" y="0">33%</tspan></text></g></g><g class="slice"><path class="surface" d="M301.90099701011775,340.75083599554L327.85149551517657,391.12625399331A170,170 0,0,0 329.91288258901864,390.04643013518756L303.27525505934574,340.03095342345836A113.33333333333333,113.33333333333333 0,0,1 301.90099701011775,340.75083599554Z" style="pointer-events: all; stroke-width: 1; fill: rgb(218, 112, 214); fill-opacity: 1; stroke: rgb(255, 255, 255); stroke-opacity: 1; opacity: 0.7;"/><g class="slicetext"><text data-notex="1" class="slicetext" text-anchor="middle" x="0" y="0" style="font-family: Helvetica; font-size: 16px; fill: rgb(68, 68, 68); fill-opacity: 1; white-space: pre;" transform="translate(327.8633166888999,388.0336454460918)scale(0.05747190145514499)rotate(62.35294117647061)"><tspan class="line" dy="0em" x="0" y="0">High comfort</tspan><tspan class="line" dy="1.3em" x="0" y="0">17%</tspan></text></g></g><g class="slice"><path class="surface" d="M303.27525505934574,340.03095342345836L329.91288258901864,390.04643013518756A170,170 0,0,0 391.39022336465536,334.3864647970929L344.26014890977024,302.9243098647286A113.33333333333333,113.33333333333333 0,0,1 303.27525505934574,340.03095342345836Z" style="pointer-events: all; stroke-width: 1; fill: rgb(135, 206, 250); fill-opacity: 1; stroke: rgb(255, 255, 255); stroke-opacity: 1; opacity: 0.7;"/><g class="slicetext"><text data-notex="1" class="slicetext" text-anchor="middle" x="0" y="0" style="font-family: Helvetica; font-size: 16px; fill: rgb(68, 68, 68); fill-opacity: 1; white-space: pre;" transform="translate(346.6275230118496,343.27515814340757)scale(0.47215914050284474)rotate(47.84313725490199)"><tspan class="line" dy="0em" x="0" y="0">Medium comfort</tspan><tspan class="line" dy="1.3em" x="0" y="0">68%</tspan></text></g></g><g class="slice"><path class="surface" d="M344.26014890977024,302.9243098647286L391.39022336465536,334.3864647970929A170,170 0,0,0 404.9217939280418,309.99455526051554L353.2811959520278,286.6630368403437A113.33333333333333,113.33333333333333 0,0,1 344.26014890977024,302.9243098647286Z" style="pointer-events: all; stroke-width: 1; fill: rgb(135, 206, 250); fill-opacity: 1; stroke: rgb(255, 255, 255); stroke-opacity: 1; opacity: 0.7;"/><g class="slicetext"><text data-notex="1" class="slicetext" text-anchor="middle" x="0" y="0" style="font-family: Helvetica; font-size: 16px; fill: rgb(68, 68, 68); fill-opacity: 1; white-space: pre;" transform="translate(378.9951981421401,308.6668181050163)scale(0.5158243505745017)rotate(29.019607843137237)"><tspan class="line" dy="0em" x="0" y="0">Low comfort</tspan><tspan class="line" dy="1.3em" x="0" y="0">23%</tspan></text></g></g><g class="slice"><path class="surface" d="M353.2811959520278,286.6630368403437L404.9217939280418,309.99455526051554A170,170 0,0,0 409.3460483605958,299.2354359472663L356.2306989070638,279.49029063151085A113.33333333333333,113.33333333333333 0,0,1 353.2811959520278,286.6630368403437Z" style="pointer-events: all; stroke-width: 1; fill: rgb(135, 206, 250); fill-opacity: 1; stroke: rgb(255, 255, 255); stroke-opacity: 1; opacity: 0.7;"/><g class="slicetext"><text data-notex="1" class="slicetext" text-anchor="middle" x="0" y="0" style="font-family: Helvetica; font-size: 16px; fill: rgb(68, 68, 68); fill-opacity: 1; white-space: pre;" transform="translate(396.4245733100477,298.85982665500165)scale(0.25474374805060007)rotate(22.35294117647061)"><tspan class="line" dy="0em" x="0" y="0">High comfort</tspan><tspan class="line" dy="1.3em" x="0" y="0">9%</tspan></text></g></g><g class="slice"><path class="surface" d="M356.2306989070638,279.49029063151085L409.3460483605958,299.2354359472663A170,170 0,0,0 416.4288392925988,274.66181547060586L360.9525595283992,263.1078769804039A113.33333333333333,113.33333333333333 0,0,1 356.2306989070638,279.49029063151085Z" style="pointer-events: all; stroke-width: 1; fill: rgb(135, 206, 250); fill-opacity: 1; stroke: rgb(255, 255, 255); stroke-opacity: 1; opacity: 0.7;"/><g class="slicetext"><text data-notex="1" class="slicetext" text-anchor="middle" x="0" y="0" style="font-family: Helvetica; font-size: 16px; fill: rgb(68, 68, 68); fill-opacity: 1; white-space: pre;" transform="translate(392.4882561818354,278.5979428934845)scale(0.4839577825749024)rotate(16.078431372549005)"><tspan class="line" dy="0em" x="0" y="0">Low comfort</tspan><tspan class="line" dy="1.3em" x="0" y="0">58%</tspan></text></g></g><g class="slice"><path class="surface" d="M360.9525595283992,263.1078769804039L416.4288392925988,274.66181547060586A170,170 0,0,0 418.409714799961,263.198447383301L362.273143199974,255.46563158886732A113.33333333333333,113.33333333333333 0,0,1 360.9525595283992,263.1078769804039Z" style="pointer-events: all; stroke-width: 1; fill: rgb(135, 206, 250); fill-opacity: 1; stroke: rgb(255, 255, 255); stroke-opacity: 1; opacity: 0.7;"/><g class="slicetext"><text data-notex="1" class="slicetext" text-anchor="middle" x="0" y="0" style="font-family: Helvetica; font-size: 16px; fill: rgb(68, 68, 68); fill-opacity: 1; white-space: pre;" transform="translate(403.1314999032269,265.23840361799495)scale(0.2455919882798411)rotate(9.803921568627402)"><tspan class="line" dy="0em" x="0" y="0">Medium comfort</tspan><tspan class="line" dy="1.3em" x="0" y="0">26%</tspan></text></g></g><g class="slice"><path class="surface" d="M362.273143199974,255.46563158886732L418.409714799961,263.198447383301A170,170 0,0,0 419.2201392850858,256.264822788342L362.81342619005716,250.843215192228A113.33333333333333,113.33333333333333 0,0,1 362.273143199974,255.46563158886732Z" style="pointer-events: all; stroke-width: 1; fill: rgb(135, 206, 250); fill-opacity: 1; stroke: rgb(255, 255, 255); stroke-opacity: 1; opacity: 0.7;"/><g class="slicetext"><text data-notex="1" class="slicetext" text-anchor="middle" x="0" y="0" style="font-family: Helvetica; font-size: 16px; fill: rgb(68, 68, 68); fill-opacity: 1; white-space: pre;" transform="translate(411.25614444876,258.0477018904715)scale(0.16204350429503356)rotate(6.666666666666629)"><tspan class="line" dy="0em" x="0" y="0">High comfort</tspan><tspan class="line" dy="1.3em" x="0" y="0">16%</tspan></text></g></g><g class="slice"><path class="surface" d="M362.81342619005716,250.843215192228L419.2201392850858,256.264822788342A170,170 0,0,0 419.9362931464846,244.65362994145883L363.29086209765643,243.10241996097255A113.33333333333333,113.33333333333333 0,0,1 362.81342619005716,250.843215192228Z" style="pointer-events: all; stroke-width: 1; fill: rgb(135, 206, 250); fill-opacity: 1; stroke: rgb(255, 255, 255); stroke-opacity: 1; opacity: 0.7;"/><g class="slicetext"><text data-notex="1" class="slicetext" text-anchor="middle" x="0" y="0" style="font-family: Helvetica; font-size: 16px; fill: rgb(68, 68, 68); fill-opacity: 1; white-space: pre;" transform="translate(407.5847074545121,248.46728051751177)scale(0.25474374805060007)rotate(3.5294117647058556)"><tspan class="line" dy="0em" x="0" y="0">High comfort</tspan><tspan class="line" dy="1.3em" x="0" y="0">71%</tspan></text></g></g><g class="slice"><path class="surface" d="M363.29086209765643,243.10241996097255L419.9362931464846,244.65362994145883A170,170 0,0,0 420,239.9999999999999L363.3333333333333,239.99999999999991A113.33333333333333,113.33333333333333 0,0,1 363.29086209765643,243.10241996097255Z" style="pointer-events: all; stroke-width: 1; fill: rgb(135, 206, 250); fill-opacity: 1; stroke: rgb(255, 255, 255); stroke-opacity: 1; opacity: 0.7;"/><g class="slicetext"><text data-notex="1" class="slicetext" text-anchor="middle" x="0" y="0" style="font-family: Helvetica; font-size: 16px; fill: rgb(68, 68, 68); fill-opacity: 1; white-space: pre;" transform="translate(413.4012598154221,241.69917315737754)scale(0.10959340503367788)rotate(0.7843137254901649)"><tspan class="line" dy="0em" x="0" y="0">Medium comfort</tspan><tspan class="line" dy="1.3em" x="0" y="0">29%</tspan></text></g></g></g></g><g class="glimages"/><defs id="topdefs-a662ba"><g class="clips"/></defs><g class="layer-above"><g class="imagelayer"/><g class="shapelayer"/></g><g class="infolayer"><g class="g-gtitle"><text class="gtitle" x="250" y="30" text-anchor="middle" dy="0em" style="font-family: Helvetica; font-size: 22px; fill: rgb(0, 0, 0); opacity: 1; font-weight: normal; white-space: pre;">Skills of the participants (Life Sciences)</text></g></g></svg>