<svg class="main-svg" xmlns="http://www.w3.org/2000/svg" xmlns:xlink="http://www.w3.org/1999/xlink" width="500" height="500" style="" viewBox="0 0 500 500"><rect x="0" y="0" width="500" height="500" style="fill: rgb(255, 255, 255); fill-opacity: 1;"/><defs id="defs-6b4172"><g class="clips"/><g class="gradients"/><g class="patterns"/></defs><g class="bglayer"/><g class="layer-below"><g class="imagelayer"/><g class="shapelayer"/></g><g class="cartesianlayer"/><g class="polarlayer"/><g class="smithlayer"/><g class="ternarylayer"/><g class="geolayer"/><g class="funnelarealayer"/><g class="pielayer"/><g class="iciclelayer"/><g class="treemaplayer"/><g class="sunburstlayer"><g class="trace sunburst" stroke-linejoin="round" style="opacity: 1;"><g class="slice cursor-pointer"><path class="surface" d="M250,240L306.6666666666667,240A56.666666666666664,56.666666666666664 0,1,0 244.7714596304129,296.4249366567186L250,240A0,0 0,1,1 250,240Z" style="pointer-events: all; stroke-width: 1; fill: rgb(143, 188, 143); fill-opacity: 1; stroke: rgb(255, 255, 255); stroke-opacity: 1;"/><g class="slicetext"><text data-notex="1" class="slicetext" text-anchor="middle" x="0" y="0" style="font-family: Helvetica; font-size: 16px; fill: rgb(68, 68, 68); fill-opacity: 1; white-space: pre;" transform="translate(234.26451994285128,217.4143788556299)scale(0.7311438461213664)rotate(47.64705882352939)"><tspan class="line" dy="0em" x="0" y="0">Balanced</tspan><tspan class="line" dy="1.3em" x="0" y="0">74%</tspan></text></g></g><g class="slice cursor-pointer"><path class="surface" d="M250,240L244.7714596304129,296.4249366567186A56.666666666666664,56.666666666666664 0,0,0 302.8400929995802,260.47036108393866L250,240A0,0 0,0,1 250,240Z" style="pointer-events: all; stroke-width: 1; fill: rgb(218, 112, 214); fill-opacity: 1; stroke: rgb(255, 255, 255); stroke-opacity: 1;"/><g class="slicetext"><text data-notex="1" class="slicetext" text-anchor="middle" x="0" y="0" style="font-family: Helvetica; font-size: 16px; fill: rgb(68, 68, 68); fill-opacity: 1; white-space: pre;" transform="translate(271.7831435639916,269.370416812598)scale(0.6234639247691143)rotate(58.23529411764707)"><tspan class="line" dy="0em" x="0" y="0">Analyst</tspan><tspan class="line" dy="1.3em" x="0" y="0">21%</tspan></text></g></g><g class="slice cursor-pointer"><path class="surface" d="M250,240L302.8400929995802,260.47036108393866A56.666666666666664,56.666666666666664 0,0,0 306.6666666666667,240L250,240A0,0 0,0,1 250,240Z" style="pointer-events: all; stroke-width: 1; fill: rgb(135, 206, 250); fill-opacity: 1; stroke: rgb(255, 255, 255); stroke-opacity: 1;"/><g class="slicetext"><text data-notex="1" class="slicetext" text-anchor="middle" x="0" y="0" style="font-family: Helvetica; font-size: 16px; fill: rgb(68, 68, 68); fill-opacity: 1; white-space: pre;" transform="translate(295.6355602783329,246.94226074599763)scale(0.3182586766115709)rotate(10.588235294117624)"><tspan class="line" dy="0em" x="0" y="0">Imaging</tspan><tspan class="line" dy="1.3em" x="0" y="0">6%</tspan></text></g></g><g class="slice cursor-pointer"><path class="surface" d="M306.6666666666667,240L363.3333333333333,240A113.33333333333333,113.33333333333333 0,1,0 153.64205795064373,299.662311792767L201.82102897532187,269.8311558963835A56.666666666666664,56.666666666666664 0,1,1 306.6666666666667,240Z" style="pointer-events: all; stroke-width: 1; fill: rgb(143, 188, 143); fill-opacity: 1; stroke: rgb(255, 255, 255); stroke-opacity: 1;"/><g class="slicetext"><text data-notex="1" class="slicetext" text-anchor="middle" x="0" y="0" style="font-family: Helvetica; font-size: 16px; fill: rgb(68, 68, 68); fill-opacity: 1; white-space: pre;" transform="translate(165.31879487326142,237.04270990740167)scale(0.602759764096472)"><tspan class="line" dy="0em" x="0" y="0">Medium skill</tspan><tspan class="line" dy="1.3em" x="0" y="0">80%</tspan></text></g></g><g class="slice cursor-pointer"><path class="surface" d="M201.82102897532187,269.8311558963835L153.64205795064373,299.662311792767A113.33333333333333,113.33333333333333 0,0,0 239.54291926082578,352.84987331343723L244.7714596304129,296.4249366567186A56.666666666666664,56.666666666666664 0,0,1 201.82102897532187,269.8311558963835Z" style="pointer-events: all; stroke-width: 1; fill: rgb(143, 188, 143); fill-opacity: 1; stroke: rgb(255, 255, 255); stroke-opacity: 1;"/><g class="slicetext"><text data-notex="1" class="slicetext" text-anchor="middle" x="0" y="0" style="font-family: Helvetica; font-size: 16px; fill: rgb(68, 68, 68); fill-opacity: 1; white-space: pre;" transform="translate(202.14071360480216,309.64737267654283)scale(0.8206203027058742)rotate(-58.23529411764707)"><tspan class="line" dy="0em" x="0" y="0">High skill</tspan><tspan class="line" dy="1.3em" x="0" y="0">20%</tspan></text></g></g><g class="slice cursor-pointer"><path class="surface" d="M244.7714596304129,296.4249366567186L239.54291926082578,352.84987331343723A113.33333333333333,113.33333333333333 0,0,0 333.75434395167474,316.3521729466098L291.87717197583737,278.1760864733049A56.666666666666664,56.666666666666664 0,0,1 244.7714596304129,296.4249366567186Z" style="pointer-events: all; stroke-width: 1; fill: rgb(218, 112, 214); fill-opacity: 1; stroke: rgb(255, 255, 255); stroke-opacity: 1;"/><g class="slicetext"><text data-notex="1" class="slicetext" text-anchor="middle" x="0" y="0" style="font-family: Helvetica; font-size: 16px; fill: rgb(68, 68, 68); fill-opacity: 1; white-space: pre;" transform="translate(283.3479705203597,317.8945757327285)scale(0.602759764096472)rotate(68.82352941176464)"><tspan class="line" dy="0em" x="0" y="0">Medium skill</tspan><tspan class="line" dy="1.3em" x="0" y="0">71%</tspan></text></g></g><g class="slice cursor-pointer"><path class="surface" d="M291.87717197583737,278.1760864733049L333.75434395167474,316.3521729466098A113.33333333333333,113.33333333333333 0,0,0 346.3579420493563,299.66231179276696L298.17897102467816,269.83115589638345A56.666666666666664,56.666666666666664 0,0,1 291.87717197583737,278.1760864733049Z" style="pointer-events: all; stroke-width: 1; fill: rgb(218, 112, 214); fill-opacity: 1; stroke: rgb(255, 255, 255); stroke-opacity: 1;"/><g class="slicetext"><text data-notex="1" class="slicetext" text-anchor="middle" x="0" y="0" style="font-family: Helvetica; font-size: 16px; fill: rgb(68, 68, 68); fill-opacity: 1; white-space: pre;" transform="translate(330.624074448428,298.4288596430361)scale(0.39941365058047695)rotate(37.05882352941171)"><tspan class="line" dy="0em" x="0" y="0">High skill</tspan><tspan class="line" dy="1.3em" x="0" y="0">14%</tspan></text></g></g><g class="slice cursor-pointer"><path class="surface" d="M298.17897102467816,269.83115589638345L346.3579420493563,299.66231179276696A113.33333333333333,113.33333333333333 0,0,0 355.68018599916036,280.94072216787725L302.8400929995802,260.4703610839386A56.666666666666664,56.666666666666664 0,0,1 298.17897102467816,269.83115589638345Z" style="pointer-events: all; stroke-width: 1; fill: rgb(218, 112, 214); fill-opacity: 1; stroke: rgb(255, 255, 255); stroke-opacity: 1;"/><g class="slicetext"><text data-notex="1" class="slicetext" text-anchor="middle" x="0" y="0" style="font-family: Helvetica; font-size: 16px; fill: rgb(68, 68, 68); fill-opacity: 1; white-space: pre;" transform="translate(340.5120151659208,282.8511681510546)scale(0.40476618549225357)rotate(26.470588235294088)"><tspan class="line" dy="0em" x="0" y="0">Low skill</tspan><tspan class="line" dy="1.3em" x="0" y="0">14%</tspan></text></g></g><g class="slice cursor-pointer"><path class="surface" d="M302.8400929995802,260.47036108393866L355.6801859991603,280.9407221678773A113.33333333333333,113.33333333333333 0,0,0 363.3333333333333,240.00000000000003L306.6666666666667,240A56.666666666666664,56.666666666666664 0,0,1 302.8400929995802,260.47036108393866Z" style="pointer-events: all; stroke-width: 1; fill: rgb(135, 206, 250); fill-opacity: 1; stroke: rgb(255, 255, 255); stroke-opacity: 1;"/><g class="slicetext"><text data-notex="1" class="slicetext" text-anchor="middle" x="0" y="0" style="font-family: Helvetica; font-size: 16px; fill: rgb(68, 68, 68); fill-opacity: 1; white-space: pre;" transform="translate(335.5693180306673,253.17771176165826)scale(0.5645828791703706)rotate(10.588235294117624)"><tspan class="line" dy="0em" x="0" y="0">Medium skill</tspan><tspan class="line" dy="1.3em" x="0" y="0">100%</tspan></text></g></g><g class="slice"><path class="surface" d="M363.3333333333333,240L420,240A170,170 0,0,0 174.22447951798853,87.82224046963941L199.48298634532568,138.54816031309292A113.33333333333333,113.33333333333333 0,0,1 363.3333333333333,240Z" style="pointer-events: all; stroke-width: 1; fill: rgb(143, 188, 143); fill-opacity: 1; stroke: rgb(255, 255, 255); stroke-opacity: 1; opacity: 0.7;"/><g class="slicetext"><text data-notex="1" class="slicetext" text-anchor="middle" x="0" y="0" style="font-family: Helvetica; font-size: 16px; fill: rgb(68, 68, 68); fill-opacity: 1; white-space: pre;" transform="translate(322.47411530467576,118.54984930533873)scale(0.47215914050284474)rotate(-58.23529411764707)"><tspan class="line" dy="0em" x="0" y="0">Medium comfort</tspan><tspan class="line" dy="1.3em" x="0" y="0">55%</tspan></text></g></g><g class="slice"><path class="surface" d="M199.48298634532568,138.54816031309292L174.22447951798853,87.82224046963941A170,170 0,0,0 105.4630869259656,329.4934676891505L153.64205795064373,299.662311792767A113.33333333333333,113.33333333333333 0,0,1 199.48298634532568,138.54816031309292Z" style="pointer-events: all; stroke-width: 1; fill: rgb(143, 188, 143); fill-opacity: 1; stroke: rgb(255, 255, 255); stroke-opacity: 1; opacity: 0.7;"/><g class="slicetext"><text data-notex="1" class="slicetext" text-anchor="middle" x="0" y="0" style="font-family: Helvetica; font-size: 16px; fill: rgb(68, 68, 68); fill-opacity: 1; white-space: pre;" transform="translate(108.3703472594059,237.08195731736842)scale(0.5947602920013405)"><tspan class="line" dy="0em" x="0" y="0">High comfort</tspan><tspan class="line" dy="1.3em" x="0" y="0">45%</tspan></text></g></g><g class="slice"><path class="surface" d="M153.64205795064373,299.662311792767L105.4630869259656,329.4934676891505A170,170 0,0,0 234.31437889123868,409.27480997015584L239.54291926082578,352.84987331343723A113.33333333333333,113.33333333333333 0,0,1 153.64205795064373,299.662311792767Z" style="pointer-events: all; stroke-width: 1; fill: rgb(143, 188, 143); fill-opacity: 1; stroke: rgb(255, 255, 255); stroke-opacity: 1; opacity: 0.7;"/><g class="slicetext"><text data-notex="1" class="slicetext" text-anchor="middle" x="0" y="0" style="font-family: Helvetica; font-size: 16px; fill: rgb(68, 68, 68); fill-opacity: 1; white-space: pre;" transform="translate(172.96062568863644,358.87980616670166)scale(0.5947602920013405)rotate(-58.23529411764707)"><tspan class="line" dy="0em" x="0" y="0">High comfort</tspan><tspan class="line" dy="1.3em" x="0" y="0">100%</tspan></text></g></g><g class="slice"><path class="surface" d="M239.54291926082578,352.84987331343723L234.31437889123868,409.27480997015584A170,170 0,0,0 325.77552048201153,392.1777595303606L300.5170136546744,341.4518396869071A113.33333333333333,113.33333333333333 0,0,1 239.54291926082578,352.84987331343723Z" style="pointer-events: all; stroke-width: 1; fill: rgb(218, 112, 214); fill-opacity: 1; stroke: rgb(255, 255, 255); stroke-opacity: 1; opacity: 0.7;"/><g class="slicetext"><text data-notex="1" class="slicetext" text-anchor="middle" x="0" y="0" style="font-family: Helvetica; font-size: 16px; fill: rgb(68, 68, 68); fill-opacity: 1; white-space: pre;" transform="translate(278.83297157770454,378.3622284526604)scale(0.5947602920013405)rotate(79.41176470588232)"><tspan class="line" dy="0em" x="0" y="0">High comfort</tspan><tspan class="line" dy="1.3em" x="0" y="0">60%</tspan></text></g></g><g class="slice"><path class="surface" d="M300.5170136546744,341.4518396869071L325.77552048201153,392.1777595303606A170,170 0,0,0 375.63151592751205,354.5282594199147L333.75434395167474,316.3521729466098A113.33333333333333,113.33333333333333 0,0,1 300.5170136546744,341.4518396869071Z" style="pointer-events: all; stroke-width: 1; fill: rgb(218, 112, 214); fill-opacity: 1; stroke: rgb(255, 255, 255); stroke-opacity: 1; opacity: 0.7;"/><g class="slicetext"><text data-notex="1" class="slicetext" text-anchor="middle" x="0" y="0" style="font-family: Helvetica; font-size: 16px; fill: rgb(68, 68, 68); fill-opacity: 1; white-space: pre;" transform="translate(337.0682226116449,351.4529546678796)scale(0.47215914050284474)rotate(52.941176470588175)"><tspan class="line" dy="0em" x="0" y="0">Medium comfort</tspan><tspan class="line" dy="1.3em" x="0" y="0">40%</tspan></text></g></g><g class="slice"><path class="surface" d="M333.75434395167474,316.3521729466098L375.63151592751205,354.5282594199147A170,170 0,0,0 394.5369130740345,329.4934676891504L346.3579420493563,299.66231179276696A113.33333333333333,113.33333333333333 0,0,1 333.75434395167474,316.3521729466098Z" style="pointer-events: all; stroke-width: 1; fill: rgb(218, 112, 214); fill-opacity: 1; stroke: rgb(255, 255, 255); stroke-opacity: 1; opacity: 0.7;"/><g class="slicetext"><text data-notex="1" class="slicetext" text-anchor="middle" x="0" y="0" style="font-family: Helvetica; font-size: 16px; fill: rgb(68, 68, 68); fill-opacity: 1; white-space: pre;" transform="translate(365.98238296777527,324.178333006457)scale(0.5542402615641823)rotate(37.05882352941171)"><tspan class="line" dy="0em" x="0" y="0">High comfort</tspan><tspan class="line" dy="1.3em" x="0" y="0">100%</tspan></text></g></g><g class="slice"><path class="surface" d="M346.3579420493563,299.66231179276696L394.5369130740345,329.4934676891504A170,170 0,0,0 408.52027899874054,301.41108325181585L355.68018599916036,280.94072216787725A113.33333333333333,113.33333333333333 0,0,1 346.3579420493563,299.66231179276696Z" style="pointer-events: all; stroke-width: 1; fill: rgb(218, 112, 214); fill-opacity: 1; stroke: rgb(255, 255, 255); stroke-opacity: 1; opacity: 0.7;"/><g class="slicetext"><text data-notex="1" class="slicetext" text-anchor="middle" x="0" y="0" style="font-family: Helvetica; font-size: 16px; fill: rgb(68, 68, 68); fill-opacity: 1; white-space: pre;" transform="translate(377.619133485573,300.95894734444545)scale(0.47215914050284474)rotate(26.470588235294088)"><tspan class="line" dy="0em" x="0" y="0">Medium comfort</tspan><tspan class="line" dy="1.3em" x="0" y="0">100%</tspan></text></g></g><g class="slice"><path class="surface" d="M355.6801859991603,280.9407221678773L408.5202789987405,301.411083251816A170,170 0,0,0 420,240.00000000000003L363.3333333333333,240.00000000000003A113.33333333333333,113.33333333333333 0,0,1 355.6801859991603,280.9407221678773Z" style="pointer-events: all; stroke-width: 1; fill: rgb(135, 206, 250); fill-opacity: 1; stroke: rgb(255, 255, 255); stroke-opacity: 1; opacity: 0.7;"/><g class="slicetext"><text data-notex="1" class="slicetext" text-anchor="middle" x="0" y="0" style="font-family: Helvetica; font-size: 16px; fill: rgb(68, 68, 68); fill-opacity: 1; white-space: pre;" transform="translate(389.4295629478467,263.7072450766391)scale(0.47215914050284474)rotate(10.588235294117624)"><tspan class="line" dy="0em" x="0" y="0">Medium comfort</tspan><tspan class="line" dy="1.3em" x="0" y="0">100%</tspan></text></g></g></g></g><g class="glimages"/><defs id="topdefs-6b4172"><g class="clips"/></defs><g class="layer-above"><g class="imagelayer"/><g class="shapelayer"/></g><g class="infolayer"><g class="g-gtitle"><text class="gtitle" x="250" y="30" text-anchor="middle" dy="0em" style="font-family: Helvetica; font-size: 22px; fill: rgb(0, 0, 0); opacity: 1; font-weight: normal; white-space: pre;">Skills of the participants (Physical Sciences)</text></g></g></svg>