<?xml version="1.0" encoding="utf-8"?>
<!-- Generator: Adobe Illustrator 27.3.1, SVG Export Plug-In . SVG Version: 6.00 Build 0)  -->
<svg version="1.1" id="Layer_1" xmlns="http://www.w3.org/2000/svg" xmlns:xlink="http://www.w3.org/1999/xlink" x="0px" y="0px"
	 viewBox="0 0 600.2 312.9" style="enable-background:new 0 0 600.2 312.9;" xml:space="preserve">
<style type="text/css">
	.st0{fill:none;}
	.st1{clip-path:url(#SVGID_00000183236668052477025860000016223244107316725407_);}
</style>
<g id="figure_1">
	<g id="patch_1">
		<path class="st0" d="M62.5,312.9h432v-288h-432V312.9z"/>
	</g>
	<g id="axes_1">
		<g>
			<defs>
				<rect id="SVGID_1_" x="155.7" y="39.5" width="245.6" height="245.6"/>
			</defs>
			<clipPath id="SVGID_00000068650533259291226390000001942983715724692889_">
				<use xlink:href="#SVGID_1_"  style="overflow:visible;"/>
			</clipPath>
			<g style="clip-path:url(#SVGID_00000068650533259291226390000001942983715724692889_);">
				
					<image style="overflow:visible;enable-background:new    ;" width="246" height="246" id="imageaaf60d7970" xlink:href="D9ED71515ACF5C47.png"  transform="matrix(1 0 0 -1 155.7188 285.0693)">
				</image>
			</g>
		</g>
		<g id="text_1">
			<g transform="translate(-6.119062 8.6188)scale(0.12 -0.12)">
				<g>
					<path id="DejaVuSans-49" d="M530.7-134.3h9.9v-72.9h-9.9V-134.3z"/>
				</g>
				<g>
					<path id="DejaVuSans-6d" d="M602.4-163.1c2.2,4,4.9,7,8.1,8.9s6.8,2.9,11,2.9c5.7,0,10.1-2,13.2-6c3.1-4,4.6-9.6,4.6-17v-33h-9
						v32.7c0,5.2-0.9,9.1-2.8,11.7c-1.9,2.5-4.7,3.8-8.5,3.8c-4.7,0-8.3-1.5-11-4.6c-2.7-3.1-4-7.3-4-12.6v-30.9h-9v32.7
						c0,5.3-0.9,9.2-2.8,11.7c-1.9,2.5-4.7,3.8-8.6,3.8c-4.6,0-8.2-1.6-11-4.7c-2.7-3.1-4-7.3-4-12.6v-30.9h-9v54.7h9v-8.5
						c2.1,3.4,4.5,5.8,7.4,7.4c2.9,1.6,6.3,2.4,10.2,2.4c4,0,7.4-1,10.1-3C599-156.3,601.1-159.2,602.4-163.1z"/>
				</g>
				<g>
					<path id="DejaVuSans-61" d="M682.1-179.8c-7.3,0-12.3-0.8-15.1-2.5c-2.8-1.7-4.2-4.5-4.2-8.5c0-3.2,1.1-5.7,3.2-7.6
						c2.1-1.9,5-2.8,8.6-2.8c5,0,9,1.8,12,5.3c3,3.5,4.5,8.2,4.5,14.1v2H682.1z M700-176v-31.2h-9v8.3c-2.1-3.3-4.6-5.8-7.7-7.3
						c-3.1-1.6-6.8-2.4-11.2-2.4c-5.6,0-10,1.6-13.4,4.7c-3.3,3.1-5,7.4-5,12.6c0,6.1,2.1,10.8,6.2,13.9c4.1,3.1,10.3,4.7,18.4,4.7
						H691v0.9c0,4.1-1.4,7.3-4.1,9.6s-6.5,3.4-11.5,3.4c-3.1,0-6.2-0.4-9.1-1.1c-3-0.8-5.8-1.9-8.5-3.4v8.3c3.3,1.3,6.5,2.2,9.6,2.8
						c3.1,0.6,6.1,1,9,1c7.9,0,13.8-2.1,17.7-6.2C698.1-161.5,700-167.7,700-176z"/>
				</g>
				<g>
					<path id="DejaVuSans-67" d="M754.5-179.3c0,6.5-1.3,11.6-4,15.1c-2.7,3.6-6.4,5.4-11.3,5.4c-4.8,0-8.6-1.8-11.2-5.4
						c-2.7-3.6-4-8.6-4-15.1c0-6.5,1.3-11.5,4-15.1c2.7-3.6,6.4-5.4,11.2-5.4c4.9,0,8.6,1.8,11.3,5.4
						C753.2-190.8,754.5-185.7,754.5-179.3z M763.5-200.5c0-9.3-2.1-16.2-6.2-20.8c-4.1-4.5-10.5-6.8-19-6.8c-3.2,0-6.1,0.2-8.9,0.7
						c-2.8,0.5-5.5,1.2-8.2,2.2v8.7c2.6-1.4,5.2-2.5,7.8-3.2c2.6-0.7,5.2-1,7.9-1c5.9,0,10.3,1.5,13.2,4.6c2.9,3.1,4.4,7.7,4.4,13.9
						v4.5c-1.9-3.2-4.2-5.6-7.1-7.2c-2.9-1.6-6.4-2.4-10.4-2.4c-6.7,0-12.1,2.6-16.2,7.7c-4.1,5.1-6.2,11.9-6.2,20.3
						c0,8.5,2.1,15.2,6.2,20.3c4.1,5.1,9.5,7.7,16.2,7.7c4,0,7.5-0.8,10.4-2.4c2.9-1.6,5.3-4,7.1-7.2v8.3h9V-200.5z"/>
				</g>
				<g>
					<path id="DejaVuSans-65" d="M828.8-177.7v-4.4h-41.3c0.4-6.2,2.3-10.9,5.6-14.1c3.3-3.2,8-4.9,13.9-4.9c3.4,0,6.8,0.4,10,1.3
						c3.2,0.8,6.5,2.1,9.7,3.8v-8.5c-3.2-1.4-6.5-2.4-9.9-3.1c-3.4-0.7-6.8-1.1-10.3-1.1c-8.7,0-15.6,2.5-20.7,7.6
						c-5.1,5.1-7.6,12-7.6,20.6c0,8.9,2.4,16,7.2,21.3c4.8,5.3,11.4,7.9,19.6,7.9c7.4,0,13.2-2.4,17.5-7.1
						C826.6-163.1,828.8-169.5,828.8-177.7z M819.8-175c-0.1,4.9-1.4,8.8-4.1,11.8c-2.7,2.9-6.2,4.4-10.7,4.4c-5,0-9-1.4-12-4.2
						c-3-2.8-4.7-6.8-5.2-12L819.8-175z"/>
				</g>
				<g>
					<path id="DejaVuSans-20" d="M834.1-207.2"/>
				</g>
				<g>
					<path id="DejaVuSans-61_00000060725150125015780660000011313299775053105055_" d="M900.2-179.8c-7.3,0-12.3-0.8-15.1-2.5
						c-2.8-1.7-4.2-4.5-4.2-8.5c0-3.2,1.1-5.7,3.2-7.6c2.1-1.9,5-2.8,8.6-2.8c5,0,9,1.8,12,5.3c3,3.5,4.5,8.2,4.5,14.1v2H900.2z
						 M918.1-176v-31.2h-9v8.3c-2.1-3.3-4.6-5.8-7.7-7.3c-3.1-1.6-6.8-2.4-11.2-2.4c-5.6,0-10,1.6-13.4,4.7c-3.3,3.1-5,7.4-5,12.6
						c0,6.1,2.1,10.8,6.2,13.9c4.1,3.1,10.3,4.7,18.4,4.7h12.6v0.9c0,4.1-1.4,7.3-4.1,9.6s-6.5,3.4-11.5,3.4c-3.1,0-6.2-0.4-9.1-1.1
						c-3-0.8-5.8-1.9-8.5-3.4v8.3c3.3,1.3,6.5,2.2,9.6,2.8c3.1,0.6,6.1,1,9,1c7.9,0,13.8-2.1,17.7-6.2
						C916.1-161.5,918.1-167.7,918.1-176z"/>
				</g>
				<g>
					<path id="DejaVuSans-6e" d="M982.1-174.2v-33h-9v32.7c0,5.2-1,9-3,11.6c-2,2.6-5,3.9-9.1,3.9c-4.9,0-8.7-1.5-11.5-4.6
						c-2.8-3.1-4.2-7.3-4.2-12.6v-30.9h-9v54.7h9v-8.5c2.2,3.3,4.7,5.8,7.6,7.4c2.9,1.6,6.3,2.4,10.1,2.4c6.3,0,11-1.9,14.2-5.8
						C980.4-161,982.1-166.7,982.1-174.2z"/>
				</g>
				<g>
					<path id="DejaVuSans-61_00000085949332425813508600000003918592460993419143_" d="M1024.8-179.8c-7.3,0-12.3-0.8-15.1-2.5
						c-2.8-1.7-4.2-4.5-4.2-8.5c0-3.2,1.1-5.7,3.2-7.6c2.1-1.9,5-2.8,8.6-2.8c5,0,9,1.8,12,5.3c3,3.5,4.5,8.2,4.5,14.1v2H1024.8z
						 M1042.7-176v-31.2h-9v8.3c-2.1-3.3-4.6-5.8-7.7-7.3c-3.1-1.6-6.8-2.4-11.2-2.4c-5.6,0-10,1.6-13.4,4.7c-3.3,3.1-5,7.4-5,12.6
						c0,6.1,2.1,10.8,6.2,13.9c4.1,3.1,10.3,4.7,18.4,4.7h12.6v0.9c0,4.1-1.4,7.3-4.1,9.6s-6.5,3.4-11.5,3.4c-3.1,0-6.2-0.4-9.1-1.1
						c-3-0.8-5.8-1.9-8.5-3.4v8.3c3.3,1.3,6.5,2.2,9.6,2.8c3.1,0.6,6.1,1,9,1c7.9,0,13.8-2.1,17.7-6.2
						C1040.8-161.5,1042.7-167.7,1042.7-176z"/>
				</g>
				<g>
					<path id="DejaVuSans-6c" d="M1061.2-131.3h9v-76h-9V-131.3z"/>
				</g>
				<g>
					<path id="DejaVuSans-79" d="M1111.8-212.3c-2.5-6.5-5-10.8-7.4-12.7c-2.4-2-5.6-3-9.7-3h-7.2v7.5h5.3c2.5,0,4.4,0.6,5.8,1.8
						c1.4,1.2,2.9,3.9,4.5,8.3l1.6,4.1l-22.1,53.8h9.5l17.1-42.8l17.1,42.8h9.5L1111.8-212.3z"/>
				</g>
				<g>
					<path id="DejaVuSans-73" d="M1183.1-154.2v-8.5c-2.5,1.3-5.2,2.3-7.9,2.9c-2.7,0.7-5.6,1-8.5,1c-4.5,0-7.8-0.7-10-2
						c-2.2-1.4-3.3-3.4-3.3-6.2c0-2.1,0.8-3.7,2.4-4.9s4.8-2.3,9.6-3.4l3.1-0.7c6.4-1.4,10.9-3.3,13.6-5.8c2.7-2.5,4-6,4-10.4
						c0-5.1-2-9.1-6-12.1c-4-3-9.5-4.4-16.6-4.4c-2.9,0-6,0.3-9.2,0.9c-3.2,0.6-6.5,1.4-10,2.6v9.3c3.3-1.7,6.6-3,9.8-3.9
						c3.2-0.9,6.4-1.3,9.6-1.3c4.2,0,7.5,0.7,9.8,2.2c2.3,1.4,3.4,3.5,3.4,6.1c0,2.4-0.8,4.3-2.5,5.6c-1.6,1.3-5.2,2.6-10.8,3.8
						l-3.1,0.7c-5.6,1.2-9.6,3-12.1,5.4c-2.5,2.4-3.7,5.8-3.7,10c0,5.1,1.8,9.1,5.5,11.9c3.6,2.8,8.8,4.2,15.5,4.2
						c3.3,0,6.4-0.2,9.4-0.7C1177.9-152.5,1180.6-153.2,1183.1-154.2z"/>
				</g>
				<g>
					<path id="DejaVuSans-69" d="M1200.3-152.6h9v-54.7h-9V-152.6z M1200.3-131.3h9v-11.4h-9V-131.3z"/>
				</g>
				<g>
					<path id="DejaVuSans-73_00000029027307025131846710000004229494916952813448_" d="M1262.9-154.2v-8.5c-2.5,1.3-5.2,2.3-7.9,2.9
						c-2.7,0.7-5.6,1-8.5,1c-4.5,0-7.8-0.7-10-2c-2.2-1.4-3.3-3.4-3.3-6.2c0-2.1,0.8-3.7,2.4-4.9s4.8-2.3,9.6-3.4l3.1-0.7
						c6.4-1.4,10.9-3.3,13.6-5.8c2.7-2.5,4-6,4-10.4c0-5.1-2-9.1-6-12.1c-4-3-9.5-4.4-16.6-4.4c-2.9,0-6,0.3-9.2,0.9
						c-3.2,0.6-6.5,1.4-10,2.6v9.3c3.3-1.7,6.6-3,9.8-3.9c3.2-0.9,6.4-1.3,9.6-1.3c4.2,0,7.5,0.7,9.8,2.2c2.3,1.4,3.4,3.5,3.4,6.1
						c0,2.4-0.8,4.3-2.5,5.6c-1.6,1.3-5.2,2.6-10.8,3.8l-3.1,0.7c-5.6,1.2-9.6,3-12.1,5.4c-2.5,2.4-3.7,5.8-3.7,10
						c0,5.1,1.8,9.1,5.5,11.9c3.6,2.8,8.8,4.2,15.5,4.2c3.3,0,6.4-0.2,9.4-0.7C1257.8-152.5,1260.5-153.2,1262.9-154.2z"/>
				</g>
				<g>
					<path id="DejaVuSans-20_00000051385469018956952560000011560289595972060056_" d="M1270.8-207.2"/>
				</g>
				<g>
					<path id="DejaVuSans-70" d="M1320.7-199v-29h-9v75.5h9v-8.3c1.9,3.2,4.3,5.7,7.2,7.2c2.9,1.6,6.3,2.4,10.3,2.4
						c6.6,0,12-2.6,16.2-7.9c4.2-5.3,6.2-12.2,6.2-20.8s-2.1-15.5-6.2-20.8c-4.1-5.3-9.5-7.9-16.2-7.9c-4,0-7.4,0.8-10.3,2.4
						C1324.9-204.7,1322.6-202.3,1320.7-199z M1351.2-179.9c0,6.6-1.4,11.8-4.1,15.5s-6.5,5.6-11.2,5.6c-4.8,0-8.5-1.9-11.2-5.6
						s-4.1-8.9-4.1-15.5c0-6.6,1.4-11.8,4.1-15.5c2.7-3.8,6.5-5.6,11.2-5.6c4.8,0,8.5,1.9,11.2,5.6
						C1349.9-191.7,1351.2-186.6,1351.2-179.9z"/>
				</g>
				<g>
					<path id="DejaVuSans-72" d="M1407.1-160.9c-1,0.6-2.1,1-3.3,1.3c-1.2,0.3-2.5,0.4-3.9,0.4c-5.1,0-9-1.7-11.7-5s-4.1-8-4.1-14.2
						v-28.8h-9v54.7h9v-8.5c1.9,3.3,4.4,5.8,7.4,7.4c3,1.6,6.7,2.4,11,2.4c0.6,0,1.3,0,2-0.1c0.8-0.1,1.6-0.2,2.5-0.4L1407.1-160.9z
						"/>
				</g>
				<g>
					<path id="DejaVuSans-6f" d="M1435.5-158.9c-4.8,0-8.6-1.9-11.4-5.6c-2.8-3.8-4.2-8.9-4.2-15.5c0-6.5,1.4-11.7,4.2-15.5
						c2.8-3.8,6.6-5.6,11.5-5.6c4.8,0,8.6,1.9,11.4,5.7c2.8,3.8,4.2,8.9,4.2,15.4c0,6.5-1.4,11.6-4.2,15.4
						C1444.1-160.7,1440.3-158.9,1435.5-158.9z M1435.5-151.2c7.8,0,13.9-2.5,18.4-7.6c4.5-5.1,6.7-12.1,6.7-21.1
						c0-8.9-2.2-16-6.7-21.1c-4.5-5.1-10.6-7.6-18.4-7.6c-7.8,0-14,2.5-18.4,7.6c-4.4,5.1-6.7,12.1-6.7,21.1c0,9,2.2,16,6.7,21.1
						C1421.5-153.8,1427.7-151.2,1435.5-151.2z"/>
				</g>
				<g>
					<path id="DejaVuSans-62" d="M1514.8-179.9c0,6.6-1.4,11.8-4.1,15.5s-6.5,5.6-11.2,5.6c-4.8,0-8.5-1.9-11.2-5.6
						s-4.1-8.9-4.1-15.5c0-6.6,1.4-11.8,4.1-15.5c2.7-3.8,6.5-5.6,11.2-5.6c4.8,0,8.5,1.9,11.2,5.6
						C1513.4-191.7,1514.8-186.6,1514.8-179.9z M1484.2-160.9c1.9,3.2,4.3,5.7,7.2,7.2c2.9,1.6,6.3,2.4,10.3,2.4
						c6.6,0,12-2.6,16.2-7.9c4.2-5.3,6.2-12.2,6.2-20.8s-2.1-15.5-6.2-20.8c-4.1-5.3-9.5-7.9-16.2-7.9c-4,0-7.4,0.8-10.3,2.4
						c-2.9,1.6-5.3,4-7.2,7.2v-8.2h-9v76h9V-160.9z"/>
				</g>
				<g>
					<path id="DejaVuSans-6c_00000036230873296632171270000005032720002270425770_" d="M1539-131.3h9v-76h-9V-131.3z"/>
				</g>
				<g>
					<path id="DejaVuSans-65_00000054962337775734302830000016730024480624593589_" d="M1613.5-177.7v-4.4h-41.3
						c0.4-6.2,2.3-10.9,5.6-14.1c3.3-3.2,8-4.9,13.9-4.9c3.4,0,6.8,0.4,10,1.3c3.2,0.8,6.5,2.1,9.7,3.8v-8.5
						c-3.2-1.4-6.5-2.4-9.9-3.1c-3.4-0.7-6.8-1.1-10.3-1.1c-8.7,0-15.6,2.5-20.7,7.6c-5.1,5.1-7.6,12-7.6,20.6
						c0,8.9,2.4,16,7.2,21.3c4.8,5.3,11.4,7.9,19.6,7.9c7.4,0,13.2-2.4,17.5-7.1C1611.4-163.1,1613.5-169.5,1613.5-177.7z
						 M1604.6-175c-0.1,4.9-1.4,8.8-4.1,11.8c-2.7,2.9-6.2,4.4-10.7,4.4c-5,0-9-1.4-12-4.2c-3-2.8-4.7-6.8-5.2-12L1604.6-175z"/>
				</g>
				<g>
					<path id="DejaVuSans-6d_00000060715350229863538190000014822719026171291566_" d="M1670.9-163.1c2.2,4,4.9,7,8.1,8.9
						s6.8,2.9,11,2.9c5.7,0,10.1-2,13.2-6c3.1-4,4.6-9.6,4.6-17v-33h-9v32.7c0,5.2-0.9,9.1-2.8,11.7c-1.9,2.5-4.7,3.8-8.5,3.8
						c-4.7,0-8.3-1.5-11-4.6c-2.7-3.1-4-7.3-4-12.6v-30.9h-9v32.7c0,5.3-0.9,9.2-2.8,11.7c-1.9,2.5-4.7,3.8-8.6,3.8
						c-4.6,0-8.2-1.6-11-4.7c-2.7-3.1-4-7.3-4-12.6v-30.9h-9v54.7h9v-8.5c2.1,3.4,4.5,5.8,7.4,7.4c2.9,1.6,6.3,2.4,10.2,2.4
						c4,0,7.4-1,10.1-3C1667.5-156.3,1669.5-159.2,1670.9-163.1z"/>
				</g>
				<g>
					<path id="DejaVuSans-73_00000165951295970546391010000002665866036912893861_" d="M1760.6-154.2v-8.5c-2.5,1.3-5.2,2.3-7.9,2.9
						c-2.7,0.7-5.6,1-8.5,1c-4.5,0-7.8-0.7-10-2c-2.2-1.4-3.3-3.4-3.3-6.2c0-2.1,0.8-3.7,2.4-4.9s4.8-2.3,9.6-3.4l3.1-0.7
						c6.4-1.4,10.9-3.3,13.6-5.8c2.7-2.5,4-6,4-10.4c0-5.1-2-9.1-6-12.1c-4-3-9.5-4.4-16.6-4.4c-2.9,0-6,0.3-9.2,0.9
						c-3.2,0.6-6.5,1.4-10,2.6v9.3c3.3-1.7,6.6-3,9.8-3.9c3.2-0.9,6.4-1.3,9.6-1.3c4.2,0,7.5,0.7,9.8,2.2c2.3,1.4,3.4,3.5,3.4,6.1
						c0,2.4-0.8,4.3-2.5,5.6c-1.6,1.3-5.2,2.6-10.8,3.8l-3.1,0.7c-5.6,1.2-9.6,3-12.1,5.4c-2.5,2.4-3.7,5.8-3.7,10
						c0,5.1,1.8,9.1,5.5,11.9c3.6,2.8,8.8,4.2,15.5,4.2c3.3,0,6.4-0.2,9.4-0.7C1755.4-152.5,1758.1-153.2,1760.6-154.2z"/>
				</g>
				<g>
					<path id="DejaVuSans-20_00000177461758194396515010000002945386225156150463_" d="M1768.4-207.2"/>
				</g>
				<g>
					<path id="DejaVuSans-77" d="M1804.4-152.6h9l11.2-42.7l11.2,42.7h10.6l11.2-42.7l11.2,42.7h9l-14.3-54.7h-10.6l-11.8,44.8
						l-11.8-44.8h-10.6L1804.4-152.6z"/>
				</g>
				<g>
					<path id="DejaVuSans-68" d="M1936.8-174.2v-33h-9v32.7c0,5.2-1,9-3,11.6c-2,2.6-5,3.9-9.1,3.9c-4.9,0-8.7-1.5-11.5-4.6
						c-2.8-3.1-4.2-7.3-4.2-12.6v-30.9h-9v76h9v-29.8c2.2,3.3,4.7,5.8,7.6,7.4c2.9,1.6,6.3,2.4,10.1,2.4c6.3,0,11-1.9,14.2-5.8
						C1935.2-161,1936.8-166.7,1936.8-174.2z"/>
				</g>
				<g>
					<path id="DejaVuSans-69_00000073684303125183807360000013041923507265135755_" d="M1954.7-152.6h9v-54.7h-9V-152.6z
						 M1954.7-131.3h9v-11.4h-9V-131.3z"/>
				</g>
				<g>
					<path id="DejaVuSans-63" d="M2021.9-154.7v-8.4c-2.5,1.4-5.1,2.5-7.6,3.2c-2.6,0.7-5.1,1-7.7,1c-5.8,0-10.4-1.8-13.6-5.5
						c-3.2-3.7-4.8-8.9-4.8-15.5s1.6-11.9,4.8-15.6c3.2-3.7,7.8-5.5,13.6-5.5c2.6,0,5.2,0.3,7.7,1c2.6,0.7,5.1,1.8,7.6,3.2v-8.3
						c-2.5-1.2-5.1-2-7.8-2.6c-2.7-0.6-5.5-0.9-8.6-0.9c-8.2,0-14.8,2.6-19.6,7.8c-4.8,5.2-7.3,12.2-7.3,21c0,8.9,2.4,15.9,7.3,21
						c4.9,5.1,11.6,7.7,20.2,7.7c2.8,0,5.5-0.3,8.1-0.9C2016.8-152.7,2019.4-153.5,2021.9-154.7z"/>
				</g>
				<g>
					<path id="DejaVuSans-68_00000109732100147223706100000006063103059332049292_" d="M2083-174.2v-33h-9v32.7c0,5.2-1,9-3,11.6
						c-2,2.6-5,3.9-9.1,3.9c-4.9,0-8.7-1.5-11.5-4.6c-2.8-3.1-4.2-7.3-4.2-12.6v-30.9h-9v76h9v-29.8c2.2,3.3,4.7,5.8,7.6,7.4
						c2.9,1.6,6.3,2.4,10.1,2.4c6.3,0,11-1.9,14.2-5.8C2081.4-161,2083-166.7,2083-174.2z"/>
				</g>
				<g>
					<path id="DejaVuSans-20_00000090267530390098815540000012089645760942920617_" d="M2091.5-207.2"/>
				</g>
				<g>
					<path id="DejaVuSans-6e_00000048497773202241273620000008615277222387727286_" d="M2178.1-174.2v-33h-9v32.7c0,5.2-1,9-3,11.6
						c-2,2.6-5,3.9-9.1,3.9c-4.9,0-8.7-1.5-11.5-4.6c-2.8-3.1-4.2-7.3-4.2-12.6v-30.9h-9v54.7h9v-8.5c2.2,3.3,4.7,5.8,7.6,7.4
						c2.9,1.6,6.3,2.4,10.1,2.4c6.3,0,11-1.9,14.2-5.8C2176.5-161,2178.1-166.7,2178.1-174.2z"/>
				</g>
				<g>
					<path id="DejaVuSans-65_00000081613747134685441330000005480397759065327799_" d="M2242.8-177.7v-4.4h-41.3
						c0.4-6.2,2.3-10.9,5.6-14.1c3.3-3.2,8-4.9,13.9-4.9c3.4,0,6.8,0.4,10,1.3c3.2,0.8,6.5,2.1,9.7,3.8v-8.5
						c-3.2-1.4-6.5-2.4-9.9-3.1c-3.4-0.7-6.8-1.1-10.3-1.1c-8.7,0-15.6,2.5-20.7,7.6c-5.1,5.1-7.6,12-7.6,20.6
						c0,8.9,2.4,16,7.2,21.3c4.8,5.3,11.4,7.9,19.6,7.9c7.4,0,13.2-2.4,17.5-7.1C2240.7-163.1,2242.8-169.5,2242.8-177.7z
						 M2233.8-175c-0.1,4.9-1.4,8.8-4.1,11.8c-2.7,2.9-6.2,4.4-10.7,4.4c-5,0-9-1.4-12-4.2c-3-2.8-4.7-6.8-5.2-12L2233.8-175z"/>
				</g>
				<g>
					<path id="DejaVuSans-65_00000046301870413461152720000010736626625223546254_" d="M2304.4-177.7v-4.4H2263
						c0.4-6.2,2.3-10.9,5.6-14.1c3.3-3.2,8-4.9,13.9-4.9c3.4,0,6.8,0.4,10,1.3c3.2,0.8,6.5,2.1,9.7,3.8v-8.5
						c-3.2-1.4-6.5-2.4-9.9-3.1c-3.4-0.7-6.8-1.1-10.3-1.1c-8.7,0-15.6,2.5-20.7,7.6c-5.1,5.1-7.6,12-7.6,20.6
						c0,8.9,2.4,16,7.2,21.3c4.8,5.3,11.4,7.9,19.6,7.9c7.4,0,13.2-2.4,17.5-7.1C2302.2-163.1,2304.4-169.5,2304.4-177.7z
						 M2295.4-175c-0.1,4.9-1.4,8.8-4.1,11.8c-2.7,2.9-6.2,4.4-10.7,4.4c-5,0-9-1.4-12-4.2c-3-2.8-4.7-6.8-5.2-12L2295.4-175z"/>
				</g>
				<g>
					<path id="DejaVuSans-64" d="M2355.1-160.9v29.6h9v-76h-9v8.2c-1.9-3.2-4.3-5.7-7.2-7.2c-2.9-1.6-6.3-2.4-10.4-2.4
						c-6.6,0-12,2.6-16.1,7.9c-4.1,5.3-6.2,12.2-6.2,20.8s2.1,15.5,6.2,20.8c4.2,5.3,9.5,7.9,16.1,7.9c4,0,7.5-0.8,10.4-2.4
						C2350.8-155.2,2353.2-157.6,2355.1-160.9z M2324.5-179.9c0-6.6,1.4-11.8,4.1-15.5c2.7-3.8,6.5-5.6,11.2-5.6s8.5,1.9,11.2,5.6
						c2.7,3.8,4.1,8.9,4.1,15.5c0,6.6-1.4,11.8-4.1,15.5c-2.7,3.8-6.5,5.6-11.2,5.6s-8.5-1.9-11.2-5.6S2324.5-173.3,2324.5-179.9z"
						/>
				</g>
				<g>
					<path id="DejaVuSans-73_00000108294564922992272620000007191501891498418087_" d="M2417.4-154.2v-8.5c-2.5,1.3-5.2,2.3-7.9,2.9
						c-2.7,0.7-5.6,1-8.5,1c-4.5,0-7.8-0.7-10-2c-2.2-1.4-3.3-3.4-3.3-6.2c0-2.1,0.8-3.7,2.4-4.9s4.8-2.3,9.6-3.4l3.1-0.7
						c6.4-1.4,10.9-3.3,13.6-5.8c2.7-2.5,4-6,4-10.4c0-5.1-2-9.1-6-12.1c-4-3-9.5-4.4-16.6-4.4c-2.9,0-6,0.3-9.2,0.9
						c-3.2,0.6-6.5,1.4-10,2.6v9.3c3.3-1.7,6.6-3,9.8-3.9c3.2-0.9,6.4-1.3,9.6-1.3c4.2,0,7.5,0.7,9.8,2.2c2.3,1.4,3.4,3.5,3.4,6.1
						c0,2.4-0.8,4.3-2.5,5.6c-1.6,1.3-5.2,2.6-10.8,3.8l-3.1,0.7c-5.6,1.2-9.6,3-12.1,5.4c-2.5,2.4-3.7,5.8-3.7,10
						c0,5.1,1.8,9.1,5.5,11.9c3.6,2.8,8.8,4.2,15.5,4.2c3.3,0,6.4-0.2,9.4-0.7C2412.3-152.5,2415-153.2,2417.4-154.2z"/>
				</g>
				<g>
					<path id="DejaVuSans-20_00000029736795577333020860000010730122219266058417_" d="M2425.3-207.2"/>
				</g>
				<g>
					<path id="DejaVuSans-62_00000008125741081096696890000015472008807193037234_" d="M2505.7-179.9c0,6.6-1.4,11.8-4.1,15.5
						s-6.5,5.6-11.2,5.6c-4.8,0-8.5-1.9-11.2-5.6s-4.1-8.9-4.1-15.5c0-6.6,1.4-11.8,4.1-15.5c2.7-3.8,6.5-5.6,11.2-5.6
						c4.8,0,8.5,1.9,11.2,5.6C2504.4-191.7,2505.7-186.6,2505.7-179.9z M2475.1-160.9c1.9,3.2,4.3,5.7,7.2,7.2
						c2.9,1.6,6.3,2.4,10.3,2.4c6.6,0,12-2.6,16.2-7.9c4.2-5.3,6.2-12.2,6.2-20.8s-2.1-15.5-6.2-20.8c-4.1-5.3-9.5-7.9-16.2-7.9
						c-4,0-7.4,0.8-10.3,2.4c-2.9,1.6-5.3,4-7.2,7.2v-8.2h-9v76h9V-160.9z"/>
				</g>
				<g>
					<path id="DejaVuSans-65_00000053538043112548465670000006072385384898561159_" d="M2576.7-177.7v-4.4h-41.3
						c0.4-6.2,2.3-10.9,5.6-14.1c3.3-3.2,8-4.9,13.9-4.9c3.4,0,6.8,0.4,10,1.3s6.5,2.1,9.7,3.8v-8.5c-3.2-1.4-6.5-2.4-9.9-3.1
						s-6.8-1.1-10.3-1.1c-8.7,0-15.6,2.5-20.7,7.6c-5.1,5.1-7.6,12-7.6,20.6c0,8.9,2.4,16,7.2,21.3c4.8,5.3,11.4,7.9,19.6,7.9
						c7.4,0,13.2-2.4,17.5-7.1C2574.6-163.1,2576.7-169.5,2576.7-177.7z M2567.7-175c-0.1,4.9-1.4,8.8-4.1,11.8
						c-2.7,2.9-6.2,4.4-10.7,4.4c-5,0-9-1.4-12-4.2c-3-2.8-4.7-6.8-5.2-12L2567.7-175z"/>
				</g>
				<g>
					<path id="DejaVuSans-74" d="M2600.4-137v-15.5h18.5v-7h-18.5v-29.7c0-4.5,0.6-7.3,1.8-8.6c1.2-1.3,3.7-1.9,7.5-1.9h9.2v-7.5
						h-9.2c-6.9,0-11.7,1.3-14.4,3.9c-2.6,2.6-4,7.3-4,14.1v29.7h-6.6v7h6.6v15.5H2600.4z"/>
				</g>
				<g>
					<path id="DejaVuSans-74_00000090981807618018485680000011550766349667644830_" d="M2639.6-137v-15.5h18.5v-7h-18.5v-29.7
						c0-4.5,0.6-7.3,1.8-8.6c1.2-1.3,3.7-1.9,7.5-1.9h9.2v-7.5h-9.2c-6.9,0-11.7,1.3-14.4,3.9c-2.6,2.6-4,7.3-4,14.1v29.7h-6.6v7
						h6.6v15.5H2639.6z"/>
				</g>
				<g>
					<path id="DejaVuSans-65_00000032647897028347198640000015587114202329065662_" d="M2716.7-177.7v-4.4h-41.3
						c0.4-6.2,2.3-10.9,5.6-14.1c3.3-3.2,8-4.9,13.9-4.9c3.4,0,6.8,0.4,10,1.3s6.5,2.1,9.7,3.8v-8.5c-3.2-1.4-6.5-2.4-9.9-3.1
						s-6.8-1.1-10.3-1.1c-8.7,0-15.6,2.5-20.7,7.6c-5.1,5.1-7.6,12-7.6,20.6c0,8.9,2.4,16,7.2,21.3c4.8,5.3,11.4,7.9,19.6,7.9
						c7.4,0,13.2-2.4,17.5-7.1C2714.5-163.1,2716.7-169.5,2716.7-177.7z M2707.7-175c-0.1,4.9-1.4,8.8-4.1,11.8
						c-2.7,2.9-6.2,4.4-10.7,4.4c-5,0-9-1.4-12-4.2s-4.7-6.8-5.2-12L2707.7-175z"/>
				</g>
				<g>
					<path id="DejaVuSans-72_00000012433184174284728080000005185546092604353930_" d="M2763.1-160.9c-1,0.6-2.1,1-3.3,1.3
						c-1.2,0.3-2.5,0.4-3.9,0.4c-5.1,0-9-1.7-11.7-5s-4.1-8-4.1-14.2v-28.8h-9v54.7h9v-8.5c1.9,3.3,4.4,5.8,7.4,7.4
						c3,1.6,6.7,2.4,11,2.4c0.6,0,1.3,0,2-0.1c0.8-0.1,1.6-0.2,2.5-0.4L2763.1-160.9z"/>
				</g>
				<g>
					<path id="DejaVuSans-20_00000124152521984957739980000008417386837980342957_" d="M2763.1-207.2"/>
				</g>
				<g>
					<path id="DejaVuSans-73_00000098926885866757385170000015765903357617231250_" d="M2839.2-154.2v-8.5c-2.5,1.3-5.2,2.3-7.9,2.9
						c-2.7,0.7-5.6,1-8.5,1c-4.5,0-7.8-0.7-10-2s-3.3-3.4-3.3-6.2c0-2.1,0.8-3.7,2.4-4.9s4.8-2.3,9.6-3.4l3.1-0.7
						c6.4-1.4,10.9-3.3,13.6-5.8c2.7-2.5,4-6,4-10.4c0-5.1-2-9.1-6-12.1c-4-3-9.5-4.4-16.6-4.4c-2.9,0-6,0.3-9.2,0.9
						c-3.2,0.6-6.5,1.4-10,2.6v9.3c3.3-1.7,6.6-3,9.8-3.9c3.2-0.9,6.4-1.3,9.6-1.3c4.2,0,7.5,0.7,9.8,2.2c2.3,1.4,3.4,3.5,3.4,6.1
						c0,2.4-0.8,4.3-2.5,5.6c-1.6,1.3-5.2,2.6-10.8,3.8l-3.1,0.7c-5.6,1.2-9.6,3-12.1,5.4c-2.5,2.4-3.7,5.8-3.7,10
						c0,5.1,1.8,9.1,5.5,11.9c3.6,2.8,8.8,4.2,15.5,4.2c3.3,0,6.4-0.2,9.4-0.7C2834-152.5,2836.7-153.2,2839.2-154.2z"/>
				</g>
				<g>
					<path id="DejaVuSans-6f_00000100356343449739811870000007781203318348956571_" d="M2877.6-158.9c-4.8,0-8.6-1.9-11.4-5.6
						s-4.2-8.9-4.2-15.5c0-6.5,1.4-11.7,4.2-15.5c2.8-3.8,6.6-5.6,11.5-5.6c4.8,0,8.6,1.9,11.4,5.7c2.8,3.8,4.2,8.9,4.2,15.4
						c0,6.5-1.4,11.6-4.2,15.4C2886.2-160.7,2882.4-158.9,2877.6-158.9z M2877.6-151.2c7.8,0,13.9-2.5,18.4-7.6
						c4.5-5.1,6.7-12.1,6.7-21.1c0-8.9-2.2-16-6.7-21.1c-4.5-5.1-10.6-7.6-18.4-7.6c-7.8,0-14,2.5-18.4,7.6
						c-4.4,5.1-6.7,12.1-6.7,21.1c0,9,2.2,16,6.7,21.1C2863.6-153.8,2869.7-151.2,2877.6-151.2z"/>
				</g>
				<g>
					<path id="DejaVuSans-6c_00000165235114681525806060000012950855648494340242_" d="M2917.6-131.3h9v-76h-9V-131.3z"/>
				</g>
				<g>
					<path id="DejaVuSans-75" d="M2944.4-185.7v33.1h9v-32.8c0-5.2,1-9.1,3-11.7c2-2.6,5.1-3.9,9.1-3.9c4.8,0,8.7,1.5,11.5,4.6
						c2.8,3.1,4.2,7.3,4.2,12.7v31h9v-54.7h-9v8.4c-2.2-3.3-4.7-5.8-7.6-7.4c-2.9-1.6-6.2-2.4-10-2.4c-6.3,0-11.1,2-14.3,5.9
						C2946.1-198.9,2944.4-193.2,2944.4-185.7z M2967.1-151.2L2967.1-151.2z"/>
				</g>
				<g>
					<path id="DejaVuSans-74_00000168806369614060821640000001934876881423977150_" d="M3017.6-137v-15.5h18.5v-7h-18.5v-29.7
						c0-4.5,0.6-7.3,1.8-8.6c1.2-1.3,3.7-1.9,7.5-1.9h9.2v-7.5h-9.2c-6.9,0-11.7,1.3-14.4,3.9c-2.6,2.6-4,7.3-4,14.1v29.7h-6.6v7
						h6.6v15.5H3017.6z"/>
				</g>
				<g>
					<path id="DejaVuSans-69_00000117652928380692518460000017010600746711295624_" d="M3048-152.6h9v-54.7h-9V-152.6z M3048-131.3
						h9v-11.4h-9V-131.3z"/>
				</g>
				<g>
					<path id="DejaVuSans-6f_00000005269052724879055240000013509495877653056957_" d="M3096.9-158.9c-4.8,0-8.6-1.9-11.4-5.6
						s-4.2-8.9-4.2-15.5c0-6.5,1.4-11.7,4.2-15.5c2.8-3.8,6.6-5.6,11.5-5.6c4.8,0,8.6,1.9,11.4,5.7c2.8,3.8,4.2,8.9,4.2,15.4
						c0,6.5-1.4,11.6-4.2,15.4C3105.5-160.7,3101.7-158.9,3096.9-158.9z M3096.9-151.2c7.8,0,13.9-2.5,18.4-7.6
						c4.5-5.1,6.7-12.1,6.7-21.1c0-8.9-2.2-16-6.7-21.1c-4.5-5.1-10.6-7.6-18.4-7.6c-7.8,0-14,2.5-18.4,7.6
						c-4.4,5.1-6.7,12.1-6.7,21.1c0,9,2.2,16,6.7,21.1C3082.9-153.8,3089.1-151.2,3096.9-151.2z"/>
				</g>
				<g>
					<path id="DejaVuSans-6e_00000041290807824167413310000001150050673190718100_" d="M3182.4-174.2v-33h-9v32.7c0,5.2-1,9-3,11.6
						c-2,2.6-5,3.9-9.1,3.9c-4.9,0-8.7-1.5-11.5-4.6c-2.8-3.1-4.2-7.3-4.2-12.6v-30.9h-9v54.7h9v-8.5c2.2,3.3,4.7,5.8,7.6,7.4
						c2.9,1.6,6.3,2.4,10.1,2.4c6.3,0,11-1.9,14.2-5.8C3180.8-161,3182.4-166.7,3182.4-174.2z"/>
				</g>
				<g>
					<path id="DejaVuSans-73_00000145059877189541786800000017821275281781930629_" d="M3235.2-154.2v-8.5c-2.5,1.3-5.2,2.3-7.9,2.9
						c-2.7,0.7-5.6,1-8.5,1c-4.5,0-7.8-0.7-10-2s-3.3-3.4-3.3-6.2c0-2.1,0.8-3.7,2.4-4.9s4.8-2.3,9.6-3.4l3.1-0.7
						c6.4-1.4,10.9-3.3,13.6-5.8c2.7-2.5,4-6,4-10.4c0-5.1-2-9.1-6-12.1c-4-3-9.5-4.4-16.6-4.4c-2.9,0-6,0.3-9.2,0.9
						c-3.2,0.6-6.5,1.4-10,2.6v9.3c3.3-1.7,6.6-3,9.8-3.9c3.2-0.9,6.4-1.3,9.6-1.3c4.2,0,7.5,0.7,9.8,2.2c2.3,1.4,3.4,3.5,3.4,6.1
						c0,2.4-0.8,4.3-2.5,5.6c-1.6,1.3-5.2,2.6-10.8,3.8l-3.1,0.7c-5.6,1.2-9.6,3-12.1,5.4c-2.5,2.4-3.7,5.8-3.7,10
						c0,5.1,1.8,9.1,5.5,11.9c3.6,2.8,8.8,4.2,15.5,4.2c3.3,0,6.4-0.2,9.4-0.7C3230-152.5,3232.7-153.2,3235.2-154.2z"/>
				</g>
				<g>
					<path id="DejaVuSans-20_00000183960603122810544300000014952564850933517503_" d="M3243-207.2"/>
				</g>
				<g>
					<path id="DejaVuSans-28" d="M3305.8-131.4c-4.4-7.5-7.6-14.9-9.7-22.2c-2.1-7.3-3.2-14.7-3.2-22.3c0-7.5,1.1-15,3.2-22.3
						s5.4-14.8,9.7-22.2h-7.8c-4.9,7.7-8.5,15.2-11,22.6c-2.4,7.4-3.6,14.7-3.6,22c0,7.3,1.2,14.6,3.6,21.9
						c2.4,7.4,6.1,14.9,11,22.6H3305.8z"/>
				</g>
				<g>
					<path id="DejaVuSans-70_00000127022845133685396120000009243842396610669745_" d="M3331.9-199v-29h-9v75.5h9v-8.3
						c1.9,3.2,4.3,5.7,7.2,7.2c2.9,1.6,6.3,2.4,10.3,2.4c6.6,0,12-2.6,16.2-7.9c4.2-5.3,6.2-12.2,6.2-20.8s-2.1-15.5-6.2-20.8
						c-4.1-5.3-9.5-7.9-16.2-7.9c-4,0-7.4,0.8-10.3,2.4C3336.2-204.7,3333.8-202.3,3331.9-199z M3362.5-179.9
						c0,6.6-1.4,11.8-4.1,15.5s-6.5,5.6-11.2,5.6c-4.8,0-8.5-1.9-11.2-5.6s-4.1-8.9-4.1-15.5c0-6.6,1.4-11.8,4.1-15.5
						c2.7-3.8,6.5-5.6,11.2-5.6c4.8,0,8.5,1.9,11.2,5.6C3361.1-191.7,3362.5-186.6,3362.5-179.9z"/>
				</g>
				<g>
					<path id="DejaVuSans-68_00000087386400678360088900000018263432233531081621_" d="M3432.1-174.2v-33h-9v32.7c0,5.2-1,9-3,11.6
						c-2,2.6-5,3.9-9.1,3.9c-4.9,0-8.7-1.5-11.5-4.6c-2.8-3.1-4.2-7.3-4.2-12.6v-30.9h-9v76h9v-29.8c2.2,3.3,4.7,5.8,7.6,7.4
						c2.9,1.6,6.3,2.4,10.1,2.4c6.3,0,11-1.9,14.2-5.8C3430.5-161,3432.1-166.7,3432.1-174.2z"/>
				</g>
				<g>
					<path id="DejaVuSans-79_00000089562044204613218440000008984767048256979642_" d="M3472.8-212.3c-2.5-6.5-5-10.8-7.4-12.7
						c-2.4-2-5.6-3-9.7-3h-7.2v7.5h5.3c2.5,0,4.4,0.6,5.8,1.8c1.4,1.2,2.9,3.9,4.5,8.3l1.6,4.1l-22.1,53.8h9.5l17.1-42.8l17.1,42.8
						h9.5L3472.8-212.3z"/>
				</g>
				<g>
					<path id="DejaVuSans-73_00000007408582179085426250000009492524857581630651_" d="M3544.1-154.2v-8.5c-2.5,1.3-5.2,2.3-7.9,2.9
						c-2.7,0.7-5.6,1-8.5,1c-4.5,0-7.8-0.7-10-2s-3.3-3.4-3.3-6.2c0-2.1,0.8-3.7,2.4-4.9s4.8-2.3,9.6-3.4l3.1-0.7
						c6.4-1.4,10.9-3.3,13.6-5.8c2.7-2.5,4-6,4-10.4c0-5.1-2-9.1-6-12.1c-4-3-9.5-4.4-16.6-4.4c-2.9,0-6,0.3-9.2,0.9
						c-3.2,0.6-6.5,1.4-10,2.6v9.3c3.3-1.7,6.6-3,9.8-3.9c3.2-0.9,6.4-1.3,9.6-1.3c4.2,0,7.5,0.7,9.8,2.2c2.3,1.4,3.4,3.5,3.4,6.1
						c0,2.4-0.8,4.3-2.5,5.6c-1.6,1.3-5.2,2.6-10.8,3.8l-3.1,0.7c-5.6,1.2-9.6,3-12.1,5.4c-2.5,2.4-3.7,5.8-3.7,10
						c0,5.1,1.8,9.1,5.5,11.9c3.6,2.8,8.8,4.2,15.5,4.2c3.3,0,6.4-0.2,9.4-0.7C3538.9-152.5,3541.6-153.2,3544.1-154.2z"/>
				</g>
				<g>
					<path id="DejaVuSans-69_00000063620196511313202490000010690120184522354617_" d="M3561.3-152.6h9v-54.7h-9V-152.6z
						 M3561.3-131.3h9v-11.4h-9V-131.3z"/>
				</g>
				<g>
					<path id="DejaVuSans-63_00000037690045904121543880000007400321627779801271_" d="M3628.5-154.7v-8.4c-2.5,1.4-5.1,2.5-7.6,3.2
						s-5.1,1-7.7,1c-5.8,0-10.4-1.8-13.6-5.5c-3.2-3.7-4.8-8.9-4.8-15.5s1.6-11.9,4.8-15.6c3.2-3.7,7.8-5.5,13.6-5.5
						c2.6,0,5.2,0.3,7.7,1c2.6,0.7,5.1,1.8,7.6,3.2v-8.3c-2.5-1.2-5.1-2-7.8-2.6c-2.7-0.6-5.5-0.9-8.6-0.9c-8.2,0-14.8,2.6-19.6,7.8
						c-4.8,5.2-7.3,12.2-7.3,21c0,8.9,2.4,15.9,7.3,21c4.9,5.1,11.6,7.7,20.2,7.7c2.8,0,5.5-0.3,8.1-0.9
						C3623.4-152.7,3626-153.5,3628.5-154.7z"/>
				</g>
				<g>
					<path id="DejaVuSans-61_00000087377405857326165270000004010214560441757879_" d="M3669-179.8c-7.3,0-12.3-0.8-15.1-2.5
						s-4.2-4.5-4.2-8.5c0-3.2,1.1-5.7,3.2-7.6c2.1-1.9,5-2.8,8.6-2.8c5,0,9,1.8,12,5.3s4.5,8.2,4.5,14.1v2H3669z M3686.9-176v-31.2
						h-9v8.3c-2.1-3.3-4.6-5.8-7.7-7.3c-3.1-1.6-6.8-2.4-11.2-2.4c-5.6,0-10,1.6-13.4,4.7c-3.3,3.1-5,7.4-5,12.6
						c0,6.1,2.1,10.8,6.2,13.9c4.1,3.1,10.3,4.7,18.4,4.7h12.6v0.9c0,4.1-1.4,7.3-4.1,9.6s-6.5,3.4-11.5,3.4c-3.1,0-6.2-0.4-9.1-1.1
						c-3-0.8-5.8-1.9-8.5-3.4v8.3c3.3,1.3,6.5,2.2,9.6,2.8c3.1,0.6,6.1,1,9,1c7.9,0,13.8-2.1,17.7-6.2
						C3684.9-161.5,3686.9-167.7,3686.9-176z"/>
				</g>
				<g>
					<path id="DejaVuSans-6c_00000081633362494658306160000012288267703839590286_" d="M3705.4-131.3h9v-76h-9V-131.3z"/>
				</g>
				<g>
					<path id="DejaVuSans-20_00000176761548206233741570000002778701314452157602_" d="M3723.7-207.2"/>
				</g>
				<g>
					<path id="DejaVuSans-73_00000137091229054943594220000014214267590820652467_" d="M3799.8-154.2v-8.5c-2.5,1.3-5.2,2.3-7.9,2.9
						c-2.7,0.7-5.6,1-8.5,1c-4.5,0-7.8-0.7-10-2s-3.3-3.4-3.3-6.2c0-2.1,0.8-3.7,2.4-4.9s4.8-2.3,9.6-3.4l3.1-0.7
						c6.4-1.4,10.9-3.3,13.6-5.8c2.7-2.5,4-6,4-10.4c0-5.1-2-9.1-6-12.1c-4-3-9.5-4.4-16.6-4.4c-2.9,0-6,0.3-9.2,0.9
						c-3.2,0.6-6.5,1.4-10,2.6v9.3c3.3-1.7,6.6-3,9.8-3.9c3.2-0.9,6.4-1.3,9.6-1.3c4.2,0,7.5,0.7,9.8,2.2c2.3,1.4,3.4,3.5,3.4,6.1
						c0,2.4-0.8,4.3-2.5,5.6c-1.6,1.3-5.2,2.6-10.8,3.8l-3.1,0.7c-5.6,1.2-9.6,3-12.1,5.4c-2.5,2.4-3.7,5.8-3.7,10
						c0,5.1,1.8,9.1,5.5,11.9c3.6,2.8,8.8,4.2,15.5,4.2c3.3,0,6.4-0.2,9.4-0.7C3794.6-152.5,3797.3-153.2,3799.8-154.2z"/>
				</g>
				<g>
					<path id="DejaVuSans-63_00000000922275146591186860000016304695295565774249_" d="M3856.4-154.7v-8.4c-2.5,1.4-5.1,2.5-7.6,3.2
						s-5.1,1-7.7,1c-5.8,0-10.4-1.8-13.6-5.5c-3.2-3.7-4.8-8.9-4.8-15.5s1.6-11.9,4.8-15.6c3.2-3.7,7.8-5.5,13.6-5.5
						c2.6,0,5.2,0.3,7.7,1c2.6,0.7,5.1,1.8,7.6,3.2v-8.3c-2.5-1.2-5.1-2-7.8-2.6c-2.7-0.6-5.5-0.9-8.6-0.9c-8.2,0-14.8,2.6-19.6,7.8
						c-4.8,5.2-7.3,12.2-7.3,21c0,8.9,2.4,15.9,7.3,21c4.9,5.1,11.6,7.7,20.2,7.7c2.8,0,5.5-0.3,8.1-0.9
						C3851.4-152.7,3853.9-153.5,3856.4-154.7z"/>
				</g>
				<g>
					<path id="DejaVuSans-69_00000174577217278455235220000001938543951186281608_" d="M3872-152.6h9v-54.7h-9V-152.6z M3872-131.3
						h9v-11.4h-9V-131.3z"/>
				</g>
				<g>
					<path id="DejaVuSans-65_00000075861600069526309300000009595129304367387266_" d="M3946.6-177.7v-4.4h-41.3
						c0.4-6.2,2.3-10.9,5.6-14.1c3.3-3.2,8-4.9,13.9-4.9c3.4,0,6.8,0.4,10,1.3s6.5,2.1,9.7,3.8v-8.5c-3.2-1.4-6.5-2.4-9.9-3.1
						s-6.8-1.1-10.3-1.1c-8.7,0-15.6,2.5-20.7,7.6c-5.1,5.1-7.6,12-7.6,20.6c0,8.9,2.4,16,7.2,21.3c4.8,5.3,11.4,7.9,19.6,7.9
						c7.4,0,13.2-2.4,17.5-7.1C3944.5-163.1,3946.6-169.5,3946.6-177.7z M3937.6-175c-0.1,4.9-1.4,8.8-4.1,11.8
						c-2.7,2.9-6.2,4.4-10.7,4.4c-5,0-9-1.4-12-4.2s-4.7-6.8-5.2-12L3937.6-175z"/>
				</g>
				<g>
					<path id="DejaVuSans-6e_00000024721643959070799970000012964805197801284775_" d="M4006.8-174.2v-33h-9v32.7c0,5.2-1,9-3,11.6
						c-2,2.6-5,3.9-9.1,3.9c-4.9,0-8.7-1.5-11.5-4.6c-2.8-3.1-4.2-7.3-4.2-12.6v-30.9h-9v54.7h9v-8.5c2.2,3.3,4.7,5.8,7.6,7.4
						c2.9,1.6,6.3,2.4,10.1,2.4c6.3,0,11-1.9,14.2-5.8C4005.2-161,4006.8-166.7,4006.8-174.2z"/>
				</g>
				<g>
					<path id="DejaVuSans-63_00000010277971859385621500000003417410397862484366_" d="M4064.1-154.7v-8.4c-2.5,1.4-5.1,2.5-7.6,3.2
						s-5.1,1-7.7,1c-5.8,0-10.4-1.8-13.6-5.5c-3.2-3.7-4.8-8.9-4.8-15.5s1.6-11.9,4.8-15.6c3.2-3.7,7.8-5.5,13.6-5.5
						c2.6,0,5.2,0.3,7.7,1c2.6,0.7,5.1,1.8,7.6,3.2v-8.3c-2.5-1.2-5.1-2-7.8-2.6c-2.7-0.6-5.5-0.9-8.6-0.9c-8.2,0-14.8,2.6-19.6,7.8
						c-4.8,5.2-7.3,12.2-7.3,21c0,8.9,2.4,15.9,7.3,21c4.9,5.1,11.6,7.7,20.2,7.7c2.8,0,5.5-0.3,8.1-0.9
						C4059-152.7,4061.6-153.5,4064.1-154.7z"/>
				</g>
				<g>
					<path id="DejaVuSans-65_00000075133741554007706540000018388382305101365378_" d="M4126.5-177.7v-4.4h-41.3
						c0.4-6.2,2.3-10.9,5.6-14.1c3.3-3.2,8-4.9,13.9-4.9c3.4,0,6.8,0.4,10,1.3c3.2,0.8,6.5,2.1,9.7,3.8v-8.5
						c-3.2-1.4-6.5-2.4-9.9-3.1c-3.4-0.7-6.8-1.1-10.3-1.1c-8.7,0-15.6,2.5-20.7,7.6c-5.1,5.1-7.6,12-7.6,20.6
						c0,8.9,2.4,16,7.2,21.3c4.8,5.3,11.4,7.9,19.6,7.9c7.4,0,13.2-2.4,17.5-7.1C4124.3-163.1,4126.5-169.5,4126.5-177.7z
						 M4117.5-175c-0.1,4.9-1.4,8.8-4.1,11.8c-2.7,2.9-6.2,4.4-10.7,4.4c-5,0-9-1.4-12-4.2s-4.7-6.8-5.2-12L4117.5-175z"/>
				</g>
				<g>
					<path id="DejaVuSans-73_00000053505453847458914200000003027517636896852129_" d="M4176.1-154.2v-8.5c-2.5,1.3-5.2,2.3-7.9,2.9
						c-2.7,0.7-5.6,1-8.5,1c-4.5,0-7.8-0.7-10-2c-2.2-1.4-3.3-3.4-3.3-6.2c0-2.1,0.8-3.7,2.4-4.9s4.8-2.3,9.6-3.4l3.1-0.7
						c6.4-1.4,10.9-3.3,13.6-5.8c2.7-2.5,4-6,4-10.4c0-5.1-2-9.1-6-12.1c-4-3-9.5-4.4-16.6-4.4c-2.9,0-6,0.3-9.2,0.9
						c-3.2,0.6-6.5,1.4-10,2.6v9.3c3.3-1.7,6.6-3,9.8-3.9c3.2-0.9,6.4-1.3,9.6-1.3c4.2,0,7.5,0.7,9.8,2.2c2.3,1.4,3.4,3.5,3.4,6.1
						c0,2.4-0.8,4.3-2.5,5.6c-1.6,1.3-5.2,2.6-10.8,3.8l-3.1,0.7c-5.6,1.2-9.6,3-12.1,5.4c-2.5,2.4-3.7,5.8-3.7,10
						c0,5.1,1.8,9.1,5.5,11.9c3.6,2.8,8.8,4.2,15.5,4.2c3.3,0,6.4-0.2,9.4-0.7C4170.9-152.5,4173.6-153.2,4176.1-154.2z"/>
				</g>
				<g>
					<path id="DejaVuSans-29" d="M4191.9-131.4h7.8c4.9-7.7,8.5-15.2,11-22.6c2.4-7.4,3.6-14.7,3.6-21.9c0-7.3-1.2-14.6-3.6-22
						c-2.4-7.4-6.1-14.9-11-22.6h-7.8c4.3,7.5,7.6,14.9,9.7,22.2c2.1,7.4,3.2,14.8,3.2,22.3c0,7.5-1.1,14.9-3.2,22.3
						C4199.5-146.3,4196.2-138.8,4191.9-131.4z"/>
				</g>
			</g>
		</g>
	</g>
</g>
</svg>
