<?xml version="1.0" encoding="utf-8"?>
<!-- Generator: Adobe Illustrator 27.3.1, SVG Export Plug-In . SVG Version: 6.00 Build 0)  -->
<svg version="1.1" id="Layer_1" xmlns="http://www.w3.org/2000/svg" xmlns:xlink="http://www.w3.org/1999/xlink" x="0px" y="0px"
	 viewBox="0 0 432 313.3" style="enable-background:new 0 0 432 313.3;" xml:space="preserve">
<style type="text/css">
	.st0{fill:none;}
	.st1{clip-path:url(#SVGID_00000049903889597817599600000004658778292912899486_);}
</style>
<g id="figure_1">
	<g id="patch_1">
		<path class="st0" d="M0,313.3h432v-288H0V313.3z"/>
	</g>
	<g id="axes_1">
		<g>
			<defs>
				<rect id="SVGID_1_" x="93.2" y="39.9" width="245.6" height="245.6"/>
			</defs>
			<clipPath id="SVGID_00000080918281863779448330000007043728500812708797_">
				<use xlink:href="#SVGID_1_"  style="overflow:visible;"/>
			</clipPath>
			<g style="clip-path:url(#SVGID_00000080918281863779448330000007043728500812708797_);">
				
					<image style="overflow:visible;enable-background:new    ;" width="246" height="246" id="imagea784429e13" xlink:href="12C332E4FCC428C6.png"  transform="matrix(1 0 0 -1 93.2094 285.4731)">
				</image>
			</g>
		</g>
		<g id="text_1">
			<g transform="translate(46.523438 8.6188)scale(0.12 -0.12)">
				<g>
					<path id="DejaVuSans-57" d="M3.3-137.7h10l15.3-61.6l15.3,61.6H55l15.3-61.6l15.3,61.6h10l-18.3-72.9H64.9l-15.4,63.3L34-210.6
						H21.6L3.3-137.7z"/>
				</g>
				<g>
					<path id="DejaVuSans-65" d="M149.2-181v-4.4h-41.3c0.4-6.2,2.3-10.9,5.6-14.1s8-4.9,13.9-4.9c3.4,0,6.8,0.4,10,1.3
						c3.2,0.8,6.5,2.1,9.7,3.8v-8.5c-3.2-1.4-6.5-2.4-9.9-3.1c-3.4-0.7-6.8-1.1-10.3-1.1c-8.7,0-15.6,2.5-20.7,7.6
						c-5.1,5.1-7.6,12-7.6,20.6c0,8.9,2.4,16,7.2,21.3c4.8,5.3,11.4,7.9,19.6,7.9c7.4,0,13.2-2.4,17.5-7.1
						C147.1-166.4,149.2-172.9,149.2-181z M140.2-178.4c-0.1,4.9-1.4,8.8-4.1,11.8c-2.7,2.9-6.2,4.4-10.7,4.4c-5,0-9-1.4-12-4.2
						s-4.7-6.8-5.2-12L140.2-178.4z"/>
				</g>
				<g>
					<path id="DejaVuSans-6c" d="M163.9-134.6h9v-76h-9V-134.6z"/>
				</g>
				<g>
					<path id="DejaVuSans-6c_00000089558558748088428470000005433529236181603229_" d="M191.7-134.6h9v-76h-9V-134.6z"/>
				</g>
				<g>
					<path id="DejaVuSans-20" d="M210.1-210.6"/>
				</g>
				<g>
					<path id="DejaVuSans-73" d="M286.2-157.5v-8.5c-2.5,1.3-5.2,2.3-7.9,2.9c-2.7,0.7-5.6,1-8.5,1c-4.5,0-7.8-0.7-10-2
						c-2.2-1.4-3.3-3.4-3.3-6.2c0-2.1,0.8-3.7,2.4-4.9s4.8-2.3,9.6-3.4l3.1-0.7c6.4-1.4,10.9-3.3,13.6-5.8c2.7-2.5,4-6,4-10.4
						c0-5.1-2-9.1-6-12.1c-4-3-9.5-4.4-16.6-4.4c-2.9,0-6,0.3-9.2,0.9c-3.2,0.6-6.5,1.4-10,2.6v9.3c3.3-1.7,6.6-3,9.8-3.9
						c3.2-0.9,6.4-1.3,9.6-1.3c4.2,0,7.5,0.7,9.8,2.2c2.3,1.4,3.4,3.5,3.4,6.1c0,2.4-0.8,4.3-2.5,5.6c-1.6,1.3-5.2,2.6-10.8,3.8
						l-3.1,0.7c-5.6,1.2-9.6,3-12.1,5.4c-2.5,2.4-3.7,5.8-3.7,10c0,5.1,1.8,9.1,5.5,11.9c3.6,2.8,8.8,4.2,15.5,4.2
						c3.3,0,6.4-0.2,9.4-0.7C281-155.8,283.7-156.6,286.2-157.5z"/>
				</g>
				<g>
					<path id="DejaVuSans-6f" d="M324.6-162.2c-4.8,0-8.6-1.9-11.4-5.6c-2.8-3.8-4.2-8.9-4.2-15.5s1.4-11.7,4.2-15.5
						c2.8-3.8,6.6-5.6,11.5-5.6c4.8,0,8.6,1.9,11.4,5.7c2.8,3.8,4.2,8.9,4.2,15.4c0,6.5-1.4,11.6-4.2,15.4
						C333.2-164.1,329.4-162.2,324.6-162.2z M324.6-154.6c7.8,0,13.9-2.5,18.4-7.6c4.5-5.1,6.7-12.1,6.7-21.1c0-8.9-2.2-16-6.7-21.1
						c-4.5-5.1-10.6-7.6-18.4-7.6c-7.8,0-14,2.5-18.4,7.6c-4.4,5.1-6.7,12.1-6.7,21.1c0,9,2.2,16,6.7,21.1
						C310.6-157.2,316.7-154.6,324.6-154.6z"/>
				</g>
				<g>
					<path id="DejaVuSans-6c_00000177455859610065726250000004576821919917342368_" d="M364.6-134.6h9v-76h-9V-134.6z"/>
				</g>
				<g>
					<path id="DejaVuSans-76" d="M385.9-155.9h9.5l17.1-45.9l17.1,45.9h9.5l-20.5-54.7h-12.2L385.9-155.9z"/>
				</g>
				<g>
					<path id="DejaVuSans-65_00000017493408605133527290000001291364595961009577_" d="M498.3-181v-4.4H457
						c0.4-6.2,2.3-10.9,5.6-14.1c3.3-3.2,8-4.9,13.9-4.9c3.4,0,6.8,0.4,10,1.3c3.2,0.8,6.5,2.1,9.7,3.8v-8.5
						c-3.2-1.4-6.5-2.4-9.9-3.1c-3.4-0.7-6.8-1.1-10.3-1.1c-8.7,0-15.6,2.5-20.7,7.6c-5.1,5.1-7.6,12-7.6,20.6
						c0,8.9,2.4,16,7.2,21.3c4.8,5.3,11.4,7.9,19.6,7.9c7.4,0,13.2-2.4,17.5-7.1C496.2-166.4,498.3-172.9,498.3-181z M489.3-178.4
						c-0.1,4.9-1.4,8.8-4.1,11.8c-2.7,2.9-6.2,4.4-10.7,4.4c-5,0-9-1.4-12-4.2c-3-2.8-4.7-6.8-5.2-12L489.3-178.4z"/>
				</g>
				<g>
					<path id="DejaVuSans-64" d="M549.1-164.2v29.6h9v-76h-9v8.2c-1.9-3.2-4.3-5.7-7.2-7.2c-2.9-1.6-6.3-2.4-10.4-2.4
						c-6.6,0-12,2.6-16.1,7.9c-4.1,5.3-6.2,12.2-6.2,20.8s2.1,15.5,6.2,20.8c4.2,5.3,9.5,7.9,16.1,7.9c4,0,7.5-0.8,10.4-2.4
						C544.8-158.6,547.2-161,549.1-164.2z M518.4-183.3c0-6.6,1.4-11.8,4.1-15.5s6.5-5.6,11.2-5.6s8.5,1.9,11.2,5.6
						c2.7,3.8,4.1,8.9,4.1,15.5s-1.4,11.8-4.1,15.5c-2.7,3.8-6.5,5.6-11.2,5.6s-8.5-1.9-11.2-5.6S518.4-176.7,518.4-183.3z"/>
				</g>
				<g>
					<path id="DejaVuSans-20_00000057864266597116126530000011378438459441763750_" d="M567.1-210.6"/>
				</g>
				<g>
					<path id="DejaVuSans-69" d="M608.3-155.9h9v-54.7h-9V-155.9z M608.3-134.6h9V-146h-9V-134.6z"/>
				</g>
				<g>
					<path id="DejaVuSans-6d" d="M678.7-166.4c2.2,4,4.9,7,8.1,8.9s6.8,2.9,11,2.9c5.7,0,10.1-2,13.2-6c3.1-4,4.6-9.6,4.6-17v-33h-9
						v32.7c0,5.2-0.9,9.1-2.8,11.7c-1.9,2.5-4.7,3.8-8.5,3.8c-4.7,0-8.3-1.5-11-4.6c-2.7-3.1-4-7.3-4-12.6v-30.9h-9v32.7
						c0,5.3-0.9,9.2-2.8,11.7c-1.9,2.5-4.7,3.8-8.6,3.8c-4.6,0-8.2-1.6-11-4.7c-2.7-3.1-4-7.3-4-12.6v-30.9h-9v54.7h9v-8.5
						c2.1,3.4,4.5,5.8,7.4,7.4c2.9,1.6,6.3,2.4,10.2,2.4c4,0,7.4-1,10.1-3C675.3-159.7,677.4-162.6,678.7-166.4z"/>
				</g>
				<g>
					<path id="DejaVuSans-61" d="M758.4-183.1c-7.3,0-12.3-0.8-15.1-2.5c-2.8-1.7-4.2-4.5-4.2-8.5c0-3.2,1.1-5.7,3.2-7.6
						c2.1-1.9,5-2.8,8.6-2.8c5,0,9,1.8,12,5.3c3,3.5,4.5,8.2,4.5,14.1v2H758.4z M776.3-179.4v-31.2h-9v8.3c-2.1-3.3-4.6-5.8-7.7-7.3
						s-6.8-2.4-11.2-2.4c-5.6,0-10,1.6-13.4,4.7c-3.3,3.1-5,7.4-5,12.6c0,6.1,2.1,10.8,6.2,13.9c4.1,3.1,10.3,4.7,18.4,4.7h12.6v0.9
						c0,4.1-1.4,7.3-4.1,9.6s-6.5,3.4-11.5,3.4c-3.1,0-6.2-0.4-9.1-1.1c-3-0.8-5.8-1.9-8.5-3.4v8.3c3.3,1.3,6.5,2.2,9.6,2.8
						c3.1,0.6,6.1,1,9,1c7.9,0,13.8-2.1,17.7-6.2C774.4-164.9,776.3-171.1,776.3-179.4z"/>
				</g>
				<g>
					<path id="DejaVuSans-67" d="M830.8-182.6c0,6.5-1.3,11.6-4,15.1c-2.7,3.6-6.4,5.4-11.3,5.4c-4.8,0-8.6-1.8-11.2-5.4
						c-2.7-3.6-4-8.6-4-15.1c0-6.5,1.3-11.5,4-15.1s6.4-5.4,11.2-5.4c4.9,0,8.6,1.8,11.3,5.4C829.4-194.1,830.8-189.1,830.8-182.6z
						 M839.8-203.8c0-9.3-2.1-16.2-6.2-20.8c-4.1-4.5-10.5-6.8-19-6.8c-3.2,0-6.1,0.2-8.9,0.7c-2.8,0.5-5.5,1.2-8.2,2.2v8.7
						c2.6-1.4,5.2-2.5,7.8-3.2c2.6-0.7,5.2-1,7.9-1c5.9,0,10.3,1.5,13.2,4.6c2.9,3.1,4.4,7.7,4.4,13.9v4.5c-1.9-3.2-4.2-5.6-7.1-7.2
						c-2.9-1.6-6.4-2.4-10.4-2.4c-6.7,0-12.1,2.6-16.2,7.7c-4.1,5.1-6.2,11.9-6.2,20.3c0,8.5,2.1,15.2,6.2,20.3
						c4.1,5.1,9.5,7.7,16.2,7.7c4,0,7.5-0.8,10.4-2.4c2.9-1.6,5.3-4,7.1-7.2v8.3h9V-203.8z"/>
				</g>
				<g>
					<path id="DejaVuSans-65_00000001664906740511028030000009740995552722918801_" d="M905.1-181v-4.4h-41.3
						c0.4-6.2,2.3-10.9,5.6-14.1c3.3-3.2,8-4.9,13.9-4.9c3.4,0,6.8,0.4,10,1.3c3.2,0.8,6.5,2.1,9.7,3.8v-8.5
						c-3.2-1.4-6.5-2.4-9.9-3.1c-3.4-0.7-6.8-1.1-10.3-1.1c-8.7,0-15.6,2.5-20.7,7.6c-5.1,5.1-7.6,12-7.6,20.6
						c0,8.9,2.4,16,7.2,21.3c4.8,5.3,11.4,7.9,19.6,7.9c7.4,0,13.2-2.4,17.5-7.1C902.9-166.4,905.1-172.9,905.1-181z M896.1-178.4
						c-0.1,4.9-1.4,8.8-4.1,11.8c-2.7,2.9-6.2,4.4-10.7,4.4c-5,0-9-1.4-12-4.2c-3-2.8-4.7-6.8-5.2-12L896.1-178.4z"/>
				</g>
				<g>
					<path id="DejaVuSans-20_00000035511698018104288180000011766940418023968692_" d="M910.4-210.6"/>
				</g>
				<g>
					<path id="DejaVuSans-61_00000021820217642501618620000003199247829891931314_" d="M976.5-183.1c-7.3,0-12.3-0.8-15.1-2.5
						c-2.8-1.7-4.2-4.5-4.2-8.5c0-3.2,1.1-5.7,3.2-7.6c2.1-1.9,5-2.8,8.6-2.8c5,0,9,1.8,12,5.3c3,3.5,4.5,8.2,4.5,14.1v2H976.5z
						 M994.4-179.4v-31.2h-9v8.3c-2.1-3.3-4.6-5.8-7.7-7.3s-6.8-2.4-11.2-2.4c-5.6,0-10,1.6-13.4,4.7c-3.3,3.1-5,7.4-5,12.6
						c0,6.1,2.1,10.8,6.2,13.9c4.1,3.1,10.3,4.7,18.4,4.7h12.6v0.9c0,4.1-1.4,7.3-4.1,9.6s-6.5,3.4-11.5,3.4c-3.1,0-6.2-0.4-9.1-1.1
						c-3-0.8-5.8-1.9-8.5-3.4v8.3c3.3,1.3,6.5,2.2,9.6,2.8c3.1,0.6,6.1,1,9,1c7.9,0,13.8-2.1,17.7-6.2
						C992.4-164.9,994.4-171.1,994.4-179.4z"/>
				</g>
				<g>
					<path id="DejaVuSans-6e" d="M1058.3-177.6v-33h-9v32.7c0,5.2-1,9-3,11.6c-2,2.6-5,3.9-9.1,3.9c-4.9,0-8.7-1.5-11.5-4.6
						c-2.8-3.1-4.2-7.3-4.2-12.6v-30.9h-9v54.7h9v-8.5c2.2,3.3,4.7,5.8,7.6,7.4c2.9,1.6,6.3,2.4,10.1,2.4c6.3,0,11-1.9,14.2-5.8
						C1056.7-164.3,1058.3-170,1058.3-177.6z"/>
				</g>
				<g>
					<path id="DejaVuSans-61_00000170993789223375421070000018341385903388609665_" d="M1101.1-183.1c-7.3,0-12.3-0.8-15.1-2.5
						c-2.8-1.7-4.2-4.5-4.2-8.5c0-3.2,1.1-5.7,3.2-7.6c2.1-1.9,5-2.8,8.6-2.8c5,0,9,1.8,12,5.3c3,3.5,4.5,8.2,4.5,14.1v2H1101.1z
						 M1119-179.4v-31.2h-9v8.3c-2.1-3.3-4.6-5.8-7.7-7.3s-6.8-2.4-11.2-2.4c-5.6,0-10,1.6-13.4,4.7c-3.3,3.1-5,7.4-5,12.6
						c0,6.1,2.1,10.8,6.2,13.9c4.1,3.1,10.3,4.7,18.4,4.7h12.6v0.9c0,4.1-1.4,7.3-4.1,9.6s-6.5,3.4-11.5,3.4c-3.1,0-6.2-0.4-9.1-1.1
						c-3-0.8-5.8-1.9-8.5-3.4v8.3c3.3,1.3,6.5,2.2,9.6,2.8c3.1,0.6,6.1,1,9,1c7.9,0,13.8-2.1,17.7-6.2
						C1117.1-164.9,1119-171.1,1119-179.4z"/>
				</g>
				<g>
					<path id="DejaVuSans-6c_00000176764339269944538120000002423774380611355268_" d="M1137.5-134.6h9v-76h-9V-134.6z"/>
				</g>
				<g>
					<path id="DejaVuSans-79" d="M1188.1-215.7c-2.5-6.5-5-10.8-7.4-12.7c-2.4-2-5.6-3-9.7-3h-7.2v7.5h5.3c2.5,0,4.4,0.6,5.8,1.8
						c1.4,1.2,2.9,3.9,4.5,8.3l1.6,4.1l-22.1,53.8h9.5l17.1-42.8l17.1,42.8h9.5L1188.1-215.7z"/>
				</g>
				<g>
					<path id="DejaVuSans-73_00000024701544680602656560000004246518369062548384_" d="M1259.4-157.5v-8.5c-2.5,1.3-5.2,2.3-7.9,2.9
						c-2.7,0.7-5.6,1-8.5,1c-4.5,0-7.8-0.7-10-2c-2.2-1.4-3.3-3.4-3.3-6.2c0-2.1,0.8-3.7,2.4-4.9s4.8-2.3,9.6-3.4l3.1-0.7
						c6.4-1.4,10.9-3.3,13.6-5.8c2.7-2.5,4-6,4-10.4c0-5.1-2-9.1-6-12.1c-4-3-9.5-4.4-16.6-4.4c-2.9,0-6,0.3-9.2,0.9
						c-3.2,0.6-6.5,1.4-10,2.6v9.3c3.3-1.7,6.6-3,9.8-3.9c3.2-0.9,6.4-1.3,9.6-1.3c4.2,0,7.5,0.7,9.8,2.2c2.3,1.4,3.4,3.5,3.4,6.1
						c0,2.4-0.8,4.3-2.5,5.6c-1.6,1.3-5.2,2.6-10.8,3.8l-3.1,0.7c-5.6,1.2-9.6,3-12.1,5.4c-2.5,2.4-3.7,5.8-3.7,10
						c0,5.1,1.8,9.1,5.5,11.9c3.6,2.8,8.8,4.2,15.5,4.2c3.3,0,6.4-0.2,9.4-0.7C1254.2-155.8,1256.9-156.6,1259.4-157.5z"/>
				</g>
				<g>
					<path id="DejaVuSans-69_00000180358655176309542290000004164241271876812950_" d="M1276.6-155.9h9v-54.7h-9V-155.9z
						 M1276.6-134.6h9V-146h-9V-134.6z"/>
				</g>
				<g>
					<path id="DejaVuSans-73_00000027604779409550599810000008754956320220742561_" d="M1339.2-157.5v-8.5c-2.5,1.3-5.2,2.3-7.9,2.9
						c-2.7,0.7-5.6,1-8.5,1c-4.5,0-7.8-0.7-10-2c-2.2-1.4-3.3-3.4-3.3-6.2c0-2.1,0.8-3.7,2.4-4.9s4.8-2.3,9.6-3.4l3.1-0.7
						c6.4-1.4,10.9-3.3,13.6-5.8c2.7-2.5,4-6,4-10.4c0-5.1-2-9.1-6-12.1c-4-3-9.5-4.4-16.6-4.4c-2.9,0-6,0.3-9.2,0.9
						c-3.2,0.6-6.5,1.4-10,2.6v9.3c3.3-1.7,6.6-3,9.8-3.9c3.2-0.9,6.4-1.3,9.6-1.3c4.2,0,7.5,0.7,9.8,2.2c2.3,1.4,3.4,3.5,3.4,6.1
						c0,2.4-0.8,4.3-2.5,5.6c-1.6,1.3-5.2,2.6-10.8,3.8l-3.1,0.7c-5.6,1.2-9.6,3-12.1,5.4c-2.5,2.4-3.7,5.8-3.7,10
						c0,5.1,1.8,9.1,5.5,11.9c3.6,2.8,8.8,4.2,15.5,4.2c3.3,0,6.4-0.2,9.4-0.7C1334.1-155.8,1336.8-156.6,1339.2-157.5z"/>
				</g>
				<g>
					<path id="DejaVuSans-20_00000116226622569408869760000012868451431846476960_" d="M1347.1-210.6"/>
				</g>
				<g>
					<path id="DejaVuSans-70" d="M1397-202.4v-29h-9v75.5h9v-8.3c1.9,3.2,4.3,5.7,7.2,7.2c2.9,1.6,6.3,2.4,10.3,2.4
						c6.6,0,12-2.6,16.2-7.9c4.2-5.3,6.2-12.2,6.2-20.8s-2.1-15.5-6.2-20.8c-4.1-5.3-9.5-7.9-16.2-7.9c-4,0-7.4,0.8-10.3,2.4
						C1401.2-208.1,1398.8-205.7,1397-202.4z M1427.5-183.3c0,6.6-1.4,11.8-4.1,15.5s-6.5,5.6-11.2,5.6c-4.8,0-8.5-1.9-11.2-5.6
						s-4.1-8.9-4.1-15.5s1.4-11.8,4.1-15.5s6.5-5.6,11.2-5.6c4.8,0,8.5,1.9,11.2,5.6S1427.5-189.9,1427.5-183.3z"/>
				</g>
				<g>
					<path id="DejaVuSans-72" d="M1483.4-164.3c-1,0.6-2.1,1-3.3,1.3c-1.2,0.3-2.5,0.4-3.9,0.4c-5.1,0-9-1.7-11.7-5s-4.1-8-4.1-14.2
						v-28.8h-9v54.7h9v-8.5c1.9,3.3,4.4,5.8,7.4,7.4c3,1.6,6.7,2.4,11,2.4c0.6,0,1.3,0,2-0.1c0.8-0.1,1.6-0.2,2.5-0.4L1483.4-164.3z
						"/>
				</g>
				<g>
					<path id="DejaVuSans-6f_00000030462107249489521570000015913205016311805841_" d="M1511.8-162.2c-4.8,0-8.6-1.9-11.4-5.6
						c-2.8-3.8-4.2-8.9-4.2-15.5s1.4-11.7,4.2-15.5c2.8-3.8,6.6-5.6,11.5-5.6c4.8,0,8.6,1.9,11.4,5.7c2.8,3.8,4.2,8.9,4.2,15.4
						c0,6.5-1.4,11.6-4.2,15.4C1520.4-164.1,1516.6-162.2,1511.8-162.2z M1511.8-154.6c7.8,0,13.9-2.5,18.4-7.6
						c4.5-5.1,6.7-12.1,6.7-21.1c0-8.9-2.2-16-6.7-21.1c-4.5-5.1-10.6-7.6-18.4-7.6c-7.8,0-14,2.5-18.4,7.6
						c-4.4,5.1-6.7,12.1-6.7,21.1c0,9,2.2,16,6.7,21.1C1497.8-157.2,1503.9-154.6,1511.8-154.6z"/>
				</g>
				<g>
					<path id="DejaVuSans-62" d="M1591.1-183.3c0,6.6-1.4,11.8-4.1,15.5s-6.5,5.6-11.2,5.6c-4.8,0-8.5-1.9-11.2-5.6
						s-4.1-8.9-4.1-15.5s1.4-11.8,4.1-15.5s6.5-5.6,11.2-5.6c4.8,0,8.5,1.9,11.2,5.6S1591.1-189.9,1591.1-183.3z M1560.5-164.2
						c1.9,3.2,4.3,5.7,7.2,7.2c2.9,1.6,6.3,2.4,10.3,2.4c6.6,0,12-2.6,16.2-7.9c4.2-5.3,6.2-12.2,6.2-20.8s-2.1-15.5-6.2-20.8
						c-4.1-5.3-9.5-7.9-16.2-7.9c-4,0-7.4,0.8-10.3,2.4c-2.9,1.6-5.3,4-7.2,7.2v-8.2h-9v76h9V-164.2z"/>
				</g>
				<g>
					<path id="DejaVuSans-6c_00000026845057930561036650000009302573809935335826_" d="M1615.3-134.6h9v-76h-9V-134.6z"/>
				</g>
				<g>
					<path id="DejaVuSans-65_00000171695549524357260460000018321212306361409208_" d="M1689.8-181v-4.4h-41.3
						c0.4-6.2,2.3-10.9,5.6-14.1c3.3-3.2,8-4.9,13.9-4.9c3.4,0,6.8,0.4,10,1.3c3.2,0.8,6.5,2.1,9.7,3.8v-8.5
						c-3.2-1.4-6.5-2.4-9.9-3.1c-3.4-0.7-6.8-1.1-10.3-1.1c-8.7,0-15.6,2.5-20.7,7.6c-5.1,5.1-7.6,12-7.6,20.6
						c0,8.9,2.4,16,7.2,21.3c4.8,5.3,11.4,7.9,19.6,7.9c7.4,0,13.2-2.4,17.5-7.1C1687.7-166.4,1689.8-172.9,1689.8-181z
						 M1680.8-178.4c-0.1,4.9-1.4,8.8-4.1,11.8c-2.7,2.9-6.2,4.4-10.7,4.4c-5,0-9-1.4-12-4.2c-3-2.8-4.7-6.8-5.2-12L1680.8-178.4z"
						/>
				</g>
				<g>
					<path id="DejaVuSans-6d_00000066481839929529012390000012512242965145507991_" d="M1747.1-166.4c2.2,4,4.9,7,8.1,8.9
						s6.8,2.9,11,2.9c5.7,0,10.1-2,13.2-6c3.1-4,4.6-9.6,4.6-17v-33h-9v32.7c0,5.2-0.9,9.1-2.8,11.7c-1.9,2.5-4.7,3.8-8.5,3.8
						c-4.7,0-8.3-1.5-11-4.6c-2.7-3.1-4-7.3-4-12.6v-30.9h-9v32.7c0,5.3-0.9,9.2-2.8,11.7c-1.9,2.5-4.7,3.8-8.6,3.8
						c-4.6,0-8.2-1.6-11-4.7c-2.7-3.1-4-7.3-4-12.6v-30.9h-9v54.7h9v-8.5c2.1,3.4,4.5,5.8,7.4,7.4c2.9,1.6,6.3,2.4,10.2,2.4
						c4,0,7.4-1,10.1-3C1743.8-159.7,1745.8-162.6,1747.1-166.4z"/>
				</g>
				<g>
					<path id="DejaVuSans-73_00000132796824097422034810000012803087774517575611_" d="M1836.8-157.5v-8.5c-2.5,1.3-5.2,2.3-7.9,2.9
						c-2.7,0.7-5.6,1-8.5,1c-4.5,0-7.8-0.7-10-2c-2.2-1.4-3.3-3.4-3.3-6.2c0-2.1,0.8-3.7,2.4-4.9s4.8-2.3,9.6-3.4l3.1-0.7
						c6.4-1.4,10.9-3.3,13.6-5.8c2.7-2.5,4-6,4-10.4c0-5.1-2-9.1-6-12.1c-4-3-9.5-4.4-16.6-4.4c-2.9,0-6,0.3-9.2,0.9
						c-3.2,0.6-6.5,1.4-10,2.6v9.3c3.3-1.7,6.6-3,9.8-3.9c3.2-0.9,6.4-1.3,9.6-1.3c4.2,0,7.5,0.7,9.8,2.2c2.3,1.4,3.4,3.5,3.4,6.1
						c0,2.4-0.8,4.3-2.5,5.6c-1.6,1.3-5.2,2.6-10.8,3.8l-3.1,0.7c-5.6,1.2-9.6,3-12.1,5.4c-2.5,2.4-3.7,5.8-3.7,10
						c0,5.1,1.8,9.1,5.5,11.9c3.6,2.8,8.8,4.2,15.5,4.2c3.3,0,6.4-0.2,9.4-0.7C1831.7-155.8,1834.4-156.6,1836.8-157.5z"/>
				</g>
				<g>
					<path id="DejaVuSans-20_00000129205480013057205720000005184064367046015417_" d="M1844.7-210.6"/>
				</g>
				<g>
					<path id="DejaVuSans-28" d="M1907.4-134.7c-4.4-7.5-7.6-14.9-9.7-22.2c-2.1-7.3-3.2-14.7-3.2-22.3c0-7.5,1.1-15,3.2-22.3
						c2.1-7.4,5.4-14.8,9.7-22.2h-7.8c-4.9,7.7-8.5,15.2-11,22.6c-2.4,7.4-3.6,14.7-3.6,22c0,7.3,1.2,14.6,3.6,21.9
						c2.4,7.4,6.1,14.9,11,22.6H1907.4z"/>
				</g>
				<g>
					<path id="DejaVuSans-70_00000163774501277946986540000010168560039722080913_" d="M1933.6-202.4v-29h-9v75.5h9v-8.3
						c1.9,3.2,4.3,5.7,7.2,7.2c2.9,1.6,6.3,2.4,10.3,2.4c6.6,0,12-2.6,16.2-7.9c4.2-5.3,6.2-12.2,6.2-20.8s-2.1-15.5-6.2-20.8
						c-4.1-5.3-9.5-7.9-16.2-7.9c-4,0-7.4,0.8-10.3,2.4C1937.8-208.1,1935.5-205.7,1933.6-202.4z M1964.1-183.3
						c0,6.6-1.4,11.8-4.1,15.5s-6.5,5.6-11.2,5.6c-4.8,0-8.5-1.9-11.2-5.6s-4.1-8.9-4.1-15.5s1.4-11.8,4.1-15.5s6.5-5.6,11.2-5.6
						c4.8,0,8.5,1.9,11.2,5.6S1964.1-189.9,1964.1-183.3z"/>
				</g>
				<g>
					<path id="DejaVuSans-68" d="M2033.8-177.6v-33h-9v32.7c0,5.2-1,9-3,11.6c-2,2.6-5,3.9-9.1,3.9c-4.9,0-8.7-1.5-11.5-4.6
						c-2.8-3.1-4.2-7.3-4.2-12.6v-30.9h-9v76h9v-29.8c2.2,3.3,4.7,5.8,7.6,7.4c2.9,1.6,6.3,2.4,10.1,2.4c6.3,0,11-1.9,14.2-5.8
						C2032.2-164.3,2033.8-170,2033.8-177.6z"/>
				</g>
				<g>
					<path id="DejaVuSans-79_00000087413069517143099200000010568590165140007604_" d="M2074.5-215.7c-2.5-6.5-5-10.8-7.4-12.7
						c-2.4-2-5.6-3-9.7-3h-7.2v7.5h5.3c2.5,0,4.4,0.6,5.8,1.8c1.4,1.2,2.9,3.9,4.5,8.3l1.6,4.1l-22.1,53.8h9.5l17.1-42.8l17.1,42.8
						h9.5L2074.5-215.7z"/>
				</g>
				<g>
					<path id="DejaVuSans-73_00000103952440767583689840000017761806396207141253_" d="M2145.8-157.5v-8.5c-2.5,1.3-5.2,2.3-7.9,2.9
						c-2.7,0.7-5.6,1-8.5,1c-4.5,0-7.8-0.7-10-2c-2.2-1.4-3.3-3.4-3.3-6.2c0-2.1,0.8-3.7,2.4-4.9s4.8-2.3,9.6-3.4l3.1-0.7
						c6.4-1.4,10.9-3.3,13.6-5.8c2.7-2.5,4-6,4-10.4c0-5.1-2-9.1-6-12.1c-4-3-9.5-4.4-16.6-4.4c-2.9,0-6,0.3-9.2,0.9
						c-3.2,0.6-6.5,1.4-10,2.6v9.3c3.3-1.7,6.6-3,9.8-3.9c3.2-0.9,6.4-1.3,9.6-1.3c4.2,0,7.5,0.7,9.8,2.2c2.3,1.4,3.4,3.5,3.4,6.1
						c0,2.4-0.8,4.3-2.5,5.6c-1.6,1.3-5.2,2.6-10.8,3.8l-3.1,0.7c-5.6,1.2-9.6,3-12.1,5.4c-2.5,2.4-3.7,5.8-3.7,10
						c0,5.1,1.8,9.1,5.5,11.9c3.6,2.8,8.8,4.2,15.5,4.2c3.3,0,6.4-0.2,9.4-0.7C2140.6-155.8,2143.3-156.6,2145.8-157.5z"/>
				</g>
				<g>
					<path id="DejaVuSans-69_00000057870073998056116700000010311524572530237592_" d="M2163-155.9h9v-54.7h-9V-155.9z M2163-134.6
						h9V-146h-9V-134.6z"/>
				</g>
				<g>
					<path id="DejaVuSans-63" d="M2230.2-158v-8.4c-2.5,1.4-5.1,2.5-7.6,3.2c-2.6,0.7-5.1,1-7.7,1c-5.8,0-10.4-1.8-13.6-5.5
						c-3.2-3.7-4.8-8.9-4.8-15.5c0-6.7,1.6-11.9,4.8-15.6c3.2-3.7,7.8-5.5,13.6-5.5c2.6,0,5.2,0.3,7.7,1c2.6,0.7,5.1,1.8,7.6,3.2
						v-8.3c-2.5-1.2-5.1-2-7.8-2.6c-2.7-0.6-5.5-0.9-8.6-0.9c-8.2,0-14.8,2.6-19.6,7.8c-4.8,5.2-7.3,12.2-7.3,21
						c0,8.9,2.4,15.9,7.3,21c4.9,5.1,11.6,7.7,20.2,7.7c2.8,0,5.5-0.3,8.1-0.9C2225.1-156,2227.7-156.9,2230.2-158z"/>
				</g>
				<g>
					<path id="DejaVuSans-61_00000175306321178119332150000011387552910681549223_" d="M2270.6-183.1c-7.3,0-12.3-0.8-15.1-2.5
						c-2.8-1.7-4.2-4.5-4.2-8.5c0-3.2,1.1-5.7,3.2-7.6c2.1-1.9,5-2.8,8.6-2.8c5,0,9,1.8,12,5.3c3,3.5,4.5,8.2,4.5,14.1v2H2270.6z
						 M2288.6-179.4v-31.2h-9v8.3c-2.1-3.3-4.6-5.8-7.7-7.3s-6.8-2.4-11.2-2.4c-5.6,0-10,1.6-13.4,4.7c-3.3,3.1-5,7.4-5,12.6
						c0,6.1,2.1,10.8,6.2,13.9c4.1,3.1,10.3,4.7,18.4,4.7h12.6v0.9c0,4.1-1.4,7.3-4.1,9.6s-6.5,3.4-11.5,3.4c-3.1,0-6.2-0.4-9.1-1.1
						c-3-0.8-5.8-1.9-8.5-3.4v8.3c3.3,1.3,6.5,2.2,9.6,2.8c3.1,0.6,6.1,1,9,1c7.9,0,13.8-2.1,17.7-6.2
						C2286.6-164.9,2288.6-171.1,2288.6-179.4z"/>
				</g>
				<g>
					<path id="DejaVuSans-6c_00000105395340827217002200000015986792063703252639_" d="M2307.1-134.6h9v-76h-9V-134.6z"/>
				</g>
				<g>
					<path id="DejaVuSans-20_00000003077530463129680390000004684320511137142201_" d="M2325.4-210.6"/>
				</g>
				<g>
					<path id="DejaVuSans-73_00000170965415466204843400000007411181948746614433_" d="M2401.5-157.5v-8.5c-2.5,1.3-5.2,2.3-7.9,2.9
						c-2.7,0.7-5.6,1-8.5,1c-4.5,0-7.8-0.7-10-2c-2.2-1.4-3.3-3.4-3.3-6.2c0-2.1,0.8-3.7,2.4-4.9s4.8-2.3,9.6-3.4l3.1-0.7
						c6.4-1.4,10.9-3.3,13.6-5.8c2.7-2.5,4-6,4-10.4c0-5.1-2-9.1-6-12.1c-4-3-9.5-4.4-16.6-4.4c-2.9,0-6,0.3-9.2,0.9
						c-3.2,0.6-6.5,1.4-10,2.6v9.3c3.3-1.7,6.6-3,9.8-3.9c3.2-0.9,6.4-1.3,9.6-1.3c4.2,0,7.5,0.7,9.8,2.2c2.3,1.4,3.4,3.5,3.4,6.1
						c0,2.4-0.8,4.3-2.5,5.6c-1.6,1.3-5.2,2.6-10.8,3.8l-3.1,0.7c-5.6,1.2-9.6,3-12.1,5.4c-2.5,2.4-3.7,5.8-3.7,10
						c0,5.1,1.8,9.1,5.5,11.9c3.6,2.8,8.8,4.2,15.5,4.2c3.3,0,6.4-0.2,9.4-0.7C2396.3-155.8,2399-156.6,2401.5-157.5z"/>
				</g>
				<g>
					<path id="DejaVuSans-63_00000077308879648976511650000015563992017649685900_" d="M2458.1-158v-8.4c-2.5,1.4-5.1,2.5-7.6,3.2
						c-2.6,0.7-5.1,1-7.7,1c-5.8,0-10.4-1.8-13.6-5.5c-3.2-3.7-4.8-8.9-4.8-15.5c0-6.7,1.6-11.9,4.8-15.6c3.2-3.7,7.8-5.5,13.6-5.5
						c2.6,0,5.2,0.3,7.7,1c2.6,0.7,5.1,1.8,7.6,3.2v-8.3c-2.5-1.2-5.1-2-7.8-2.6c-2.7-0.6-5.5-0.9-8.6-0.9c-8.2,0-14.8,2.6-19.6,7.8
						c-4.8,5.2-7.3,12.2-7.3,21c0,8.9,2.4,15.9,7.3,21c4.9,5.1,11.6,7.7,20.2,7.7c2.8,0,5.5-0.3,8.1-0.9
						C2453.1-156,2455.6-156.9,2458.1-158z"/>
				</g>
				<g>
					<path id="DejaVuSans-69_00000015319855913579586920000011181545180241077395_" d="M2473.7-155.9h9v-54.7h-9V-155.9z
						 M2473.7-134.6h9V-146h-9V-134.6z"/>
				</g>
				<g>
					<path id="DejaVuSans-65_00000148651435830464889640000010866756603258318767_" d="M2548.3-181v-4.4H2507
						c0.4-6.2,2.3-10.9,5.6-14.1c3.3-3.2,8-4.9,13.9-4.9c3.4,0,6.8,0.4,10,1.3c3.2,0.8,6.5,2.1,9.7,3.8v-8.5
						c-3.2-1.4-6.5-2.4-9.9-3.1c-3.4-0.7-6.8-1.1-10.3-1.1c-8.7,0-15.6,2.5-20.7,7.6c-5.1,5.1-7.6,12-7.6,20.6
						c0,8.9,2.4,16,7.2,21.3c4.8,5.3,11.4,7.9,19.6,7.9c7.4,0,13.2-2.4,17.5-7.1C2546.1-166.4,2548.3-172.9,2548.3-181z
						 M2539.3-178.4c-0.1,4.9-1.4,8.8-4.1,11.8c-2.7,2.9-6.2,4.4-10.7,4.4c-5,0-9-1.4-12-4.2c-3-2.8-4.7-6.8-5.2-12L2539.3-178.4z"
						/>
				</g>
				<g>
					<path id="DejaVuSans-6e_00000060747665582361955210000003223613573056049304_" d="M2608.5-177.6v-33h-9v32.7c0,5.2-1,9-3,11.6
						c-2,2.6-5,3.9-9.1,3.9c-4.9,0-8.7-1.5-11.5-4.6c-2.8-3.1-4.2-7.3-4.2-12.6v-30.9h-9v54.7h9v-8.5c2.2,3.3,4.7,5.8,7.6,7.4
						c2.9,1.6,6.3,2.4,10.1,2.4c6.3,0,11-1.9,14.2-5.8C2606.9-164.3,2608.5-170,2608.5-177.6z"/>
				</g>
				<g>
					<path id="DejaVuSans-63_00000039136191275486233420000011580003062893657238_" d="M2665.8-158v-8.4c-2.5,1.4-5.1,2.5-7.6,3.2
						c-2.6,0.7-5.1,1-7.7,1c-5.8,0-10.4-1.8-13.6-5.5c-3.2-3.7-4.8-8.9-4.8-15.5c0-6.7,1.6-11.9,4.8-15.6c3.2-3.7,7.8-5.5,13.6-5.5
						c2.6,0,5.2,0.3,7.7,1c2.6,0.7,5.1,1.8,7.6,3.2v-8.3c-2.5-1.2-5.1-2-7.8-2.6c-2.7-0.6-5.5-0.9-8.6-0.9c-8.2,0-14.8,2.6-19.6,7.8
						c-4.8,5.2-7.3,12.2-7.3,21c0,8.9,2.4,15.9,7.3,21c4.9,5.1,11.6,7.7,20.2,7.7c2.8,0,5.5-0.3,8.1-0.9
						C2660.7-156,2663.3-156.9,2665.8-158z"/>
				</g>
				<g>
					<path id="DejaVuSans-65_00000013881747883358637890000008394735194088764086_" d="M2728.2-181v-4.4h-41.3
						c0.4-6.2,2.3-10.9,5.6-14.1c3.3-3.2,8-4.9,13.9-4.9c3.4,0,6.8,0.4,10,1.3c3.2,0.8,6.5,2.1,9.7,3.8v-8.5
						c-3.2-1.4-6.5-2.4-9.9-3.1c-3.4-0.7-6.8-1.1-10.3-1.1c-8.7,0-15.6,2.5-20.7,7.6c-5.1,5.1-7.6,12-7.6,20.6
						c0,8.9,2.4,16,7.2,21.3c4.8,5.3,11.4,7.9,19.6,7.9c7.4,0,13.2-2.4,17.5-7.1C2726-166.4,2728.2-172.9,2728.2-181z M2719.2-178.4
						c-0.1,4.9-1.4,8.8-4.1,11.8c-2.7,2.9-6.2,4.4-10.7,4.4c-5,0-9-1.4-12-4.2c-3-2.8-4.7-6.8-5.2-12L2719.2-178.4z"/>
				</g>
				<g>
					<path id="DejaVuSans-73_00000101788100543584801240000004100356115634624175_" d="M2777.8-157.5v-8.5c-2.5,1.3-5.2,2.3-7.9,2.9
						c-2.7,0.7-5.6,1-8.5,1c-4.5,0-7.8-0.7-10-2c-2.2-1.4-3.3-3.4-3.3-6.2c0-2.1,0.8-3.7,2.4-4.9s4.8-2.3,9.6-3.4l3.1-0.7
						c6.4-1.4,10.9-3.3,13.6-5.8c2.7-2.5,4-6,4-10.4c0-5.1-2-9.1-6-12.1c-4-3-9.5-4.4-16.6-4.4c-2.9,0-6,0.3-9.2,0.9
						c-3.2,0.6-6.5,1.4-10,2.6v9.3c3.3-1.7,6.6-3,9.8-3.9c3.2-0.9,6.4-1.3,9.6-1.3c4.2,0,7.5,0.7,9.8,2.2c2.3,1.4,3.4,3.5,3.4,6.1
						c0,2.4-0.8,4.3-2.5,5.6c-1.6,1.3-5.2,2.6-10.8,3.8l-3.1,0.7c-5.6,1.2-9.6,3-12.1,5.4c-2.5,2.4-3.7,5.8-3.7,10
						c0,5.1,1.8,9.1,5.5,11.9c3.6,2.8,8.8,4.2,15.5,4.2c3.3,0,6.4-0.2,9.4-0.7C2772.6-155.8,2775.3-156.6,2777.8-157.5z"/>
				</g>
				<g>
					<path id="DejaVuSans-29" d="M2793.6-134.7h7.8c4.9-7.7,8.5-15.2,11-22.6c2.4-7.4,3.6-14.7,3.6-21.9c0-7.3-1.2-14.6-3.6-22
						c-2.4-7.4-6.1-14.9-11-22.6h-7.8c4.3,7.5,7.6,14.9,9.7,22.2c2.1,7.4,3.2,14.8,3.2,22.3c0,7.5-1.1,14.9-3.2,22.3
						C2801.1-149.6,2797.9-142.2,2793.6-134.7z"/>
				</g>
			</g>
		</g>
	</g>
</g>
</svg>
